<svg width="890" height="641" viewBox="0 0 890 641" fill="none" xmlns="http://www.w3.org/2000/svg">
<g clip-path="url(#clip0_985_1195)">
<path d="M478.924 617.33C478.731 624.528 477.525 631.663 475.342 638.525C475.293 638.684 475.24 638.841 475.187 639H461.821C461.835 638.857 461.849 638.698 461.864 638.525C462.755 628.279 457.663 566.664 451.52 556C452.058 556.865 479.96 584.775 478.924 617.33Z" fill="#F1F1F1"/>
<path d="M477.918 638.526C477.806 638.686 477.69 638.845 477.571 639.002H467.543C467.619 638.866 467.707 638.707 467.809 638.526C469.466 635.537 474.369 626.598 478.92 617.332C483.809 607.373 488.298 597.038 487.92 593.297C488.037 594.14 491.422 619.86 477.918 638.526Z" fill="#F1F1F1"/>
<path d="M836.113 624.64C835.985 629.41 835.186 634.138 833.739 638.685C833.707 638.791 833.671 638.894 833.637 639H824.779C824.789 638.905 824.798 638.8 824.808 638.685C825.398 631.896 822.024 591.066 817.953 584C818.31 584.573 836.799 603.068 836.113 624.64Z" fill="#F1F1F1"/>
<path d="M835.449 638.686C835.375 638.792 835.298 638.897 835.219 639.001H828.574C828.625 638.911 828.683 638.806 828.751 638.686C829.848 636.705 833.097 630.782 836.113 624.641C839.353 618.043 842.328 611.194 842.077 608.715C842.155 609.274 844.398 626.317 835.449 638.686Z" fill="#F1F1F1"/>
<path d="M409.113 624.64C408.985 629.41 408.186 634.138 406.739 638.685C406.707 638.791 406.671 638.894 406.637 639H397.779C397.789 638.905 397.798 638.8 397.808 638.685C398.398 631.896 395.024 591.066 390.953 584C391.31 584.573 409.799 603.068 409.113 624.64Z" fill="#F1F1F1"/>
<path d="M408.449 638.686C408.375 638.792 408.298 638.897 408.219 639.001H401.574C401.625 638.911 401.683 638.806 401.751 638.686C402.848 636.705 406.097 630.782 409.113 624.641C412.353 618.043 415.328 611.194 415.077 608.715C415.155 609.274 417.398 626.317 408.449 638.686Z" fill="#F1F1F1"/>
<path d="M218.473 0L119.223 163.458L406.116 337.658L505.367 174.2L218.473 0Z" fill="white"/>
<path d="M218.473 0L119.223 163.458L406.116 337.658L505.367 174.2L218.473 0ZM404.253 330.036L126.844 161.595L220.336 7.62137L497.745 176.063L404.253 330.036Z" fill="#E5E5E5"/>
<path d="M188.116 55.34L185.236 60.082L466.598 230.923L469.477 226.181L188.116 55.34Z" fill="#E5E5E5"/>
<path d="M148.635 120.363L145.756 125.105L427.117 295.946L429.996 291.204L148.635 120.363Z" fill="#E5E5E5"/>
<path d="M296.717 47.5108L197.467 210.969L202.209 213.848L301.46 50.3901L296.717 47.5108Z" fill="#E5E5E5"/>
<path d="M455.576 143.966L356.326 307.424L351.387 304.869L450.834 141.086L455.576 143.966Z" fill="#E5E5E5"/>
<path d="M358.538 308.767L356.326 307.424L351.387 304.869L351.204 304.314L348.504 296.184L328.531 236.082L325.831 227.952L291.491 124.598L288.79 116.468L279.083 87.2408L276.788 80.3308L260.787 32.1808L258.086 24.0508L265.421 28.5038L268.121 36.6338L280.57 74.1028L282.864 81.0128L296.125 120.922L298.825 129.052L333.165 232.406L335.866 240.536L355.173 298.633L355.838 300.638L357.468 305.543L358.538 308.767Z" fill="#E5E5E5"/>
<path d="M347.452 254.901H344.687V179.161C344.687 173.404 343.554 167.704 341.351 162.385C339.148 157.067 335.919 152.234 331.848 148.164C327.778 144.093 322.945 140.864 317.627 138.661C312.308 136.458 306.608 135.324 300.851 135.324H140.385C134.629 135.324 128.928 136.458 123.61 138.661C118.291 140.864 113.459 144.093 109.388 148.164C105.318 152.234 102.089 157.067 99.8857 162.385C97.6827 167.704 96.5488 173.404 96.5488 179.16V594.677C96.5488 600.434 97.6827 606.134 99.8857 611.453C102.089 616.771 105.318 621.604 109.388 625.674C113.459 629.745 118.291 632.974 123.61 635.177C128.928 637.38 134.628 638.513 140.385 638.513H300.851C312.477 638.514 323.627 633.895 331.848 625.674C340.069 617.453 344.687 606.303 344.687 594.677V308.814H347.452V254.901Z" fill="#3F3D56"/>
<path d="M302.62 146.73H281.674C282.637 149.092 283.005 151.654 282.744 154.191C282.484 156.729 281.604 159.163 280.181 161.28C278.759 163.397 276.837 165.131 274.586 166.33C272.335 167.53 269.824 168.157 267.274 168.157H175.345C172.794 168.157 170.283 167.53 168.032 166.331C165.781 165.131 163.86 163.397 162.437 161.28C161.015 159.163 160.134 156.729 159.874 154.191C159.614 151.654 159.982 149.092 160.945 146.73H141.381C132.699 146.73 124.372 150.179 118.233 156.319C112.094 162.458 108.645 170.785 108.645 179.467V594.374C108.645 598.673 109.491 602.93 111.136 606.902C112.782 610.873 115.193 614.482 118.233 617.522C121.273 620.562 124.882 622.973 128.853 624.618C132.825 626.264 137.082 627.11 141.381 627.11H302.62C306.919 627.11 311.176 626.264 315.147 624.618C319.119 622.973 322.728 620.562 325.768 617.522C328.808 614.482 331.219 610.873 332.864 606.902C334.509 602.93 335.356 598.673 335.356 594.374V179.467C335.356 175.168 334.509 170.911 332.864 166.939C331.219 162.967 328.808 159.359 325.768 156.319C322.728 153.279 319.119 150.868 315.147 149.222C311.176 147.577 306.919 146.73 302.62 146.73Z" fill="white"/>
<path d="M256.545 262.965H187.455V279.637H256.545V262.965Z" fill="#FF9900"/>
<path d="M259.835 334.605H184.166V351.278H259.835V334.605Z" fill="#E5E5E5"/>
<path d="M306.444 370.418H137.559V387.09H306.444V370.418Z" fill="#E5E5E5"/>
<path d="M306.444 406.23H137.559V422.903H306.444V406.23Z" fill="#E5E5E5"/>
<path d="M256.545 485.609H187.455V510.872H256.545V485.609Z" fill="#FF9900"/>
<path d="M373.696 137.052C377.919 137.052 381.342 133.63 381.342 129.407C381.342 125.185 377.919 121.762 373.696 121.762C369.474 121.762 366.051 125.185 366.051 129.407C366.051 133.63 369.474 137.052 373.696 137.052Z" fill="#FF9900"/>
<path d="M565.567 448.183C566.77 447.555 567.82 446.672 568.643 445.594C569.467 444.517 570.045 443.272 570.335 441.948C570.626 440.623 570.623 439.251 570.325 437.928C570.028 436.604 569.445 435.363 568.616 434.289L579.146 415.892L569.527 406.766L555.021 432.955C553.31 434.467 552.214 436.555 551.939 438.821C551.664 441.088 552.231 443.377 553.531 445.254C554.831 447.131 556.774 448.466 558.992 449.005C561.211 449.545 563.55 449.253 565.567 448.183Z" fill="#FFB7B7"/>
<path d="M624.772 626.539H611.409L605.051 574.996L624.774 574.997L624.772 626.539Z" fill="#FFB7B7"/>
<path d="M628.178 639.493L585.09 639.492V638.947C585.09 634.499 586.857 630.233 590.002 627.088C593.147 623.943 597.413 622.176 601.861 622.176H601.862L628.179 622.177L628.178 639.493Z" fill="#2F2E41"/>
<path d="M737.617 609.36L725.832 615.661L695.922 573.205L713.315 563.906L737.617 609.36Z" fill="#FFB7B7"/>
<path d="M746.728 619.177L708.73 639.493L708.473 639.012C706.376 635.09 705.923 630.495 707.214 626.238C708.504 621.982 711.433 618.412 715.355 616.315L715.356 616.314L738.564 603.906L746.728 619.177Z" fill="#2F2E41"/>
<path d="M674.582 423.426L677.574 485.189C677.574 485.189 684.478 487.781 682.062 497.798C682.062 497.798 678.675 509.338 686.337 509.338C693.998 509.338 723.984 580.648 723.984 580.648L704.388 590.576L652.916 515.85L638.284 465.946L630.446 522.644L629.923 610.172L604.318 607.298L597.002 506.183L593.605 429.105L674.582 423.426Z" fill="#2F2E41"/>
<path d="M585.465 443.301L591.775 397.518L613.634 290.496L655.177 292.847L675.011 331.101L671.565 405.72L679.499 435.18L585.465 443.301Z" fill="#3F3D56"/>
<path d="M601.482 378.239L576.531 425.737L572.623 435.056L561.199 421.528L576.859 366.197C576.859 366.197 591.027 297.592 613.552 290.609L618.999 291.499L601.482 378.239Z" fill="#3F3D56"/>
<path d="M660.959 434.569C662.242 434.13 663.414 433.416 664.392 432.476C665.369 431.536 666.129 430.394 666.617 429.128C667.105 427.863 667.31 426.506 667.217 425.153C667.124 423.8 666.735 422.484 666.079 421.298L679.277 404.71L671.153 394.23L652.843 417.918C650.923 419.153 649.523 421.05 648.907 423.249C648.292 425.447 648.505 427.796 649.505 429.848C650.506 431.9 652.224 433.514 654.335 434.385C656.446 435.255 658.803 435.32 660.959 434.569Z" fill="#FFB7B7"/>
<path d="M647.434 299.627L654.799 292.562C654.799 292.562 663.45 295.782 669.679 312.403C675.908 329.025 696.179 374.03 696.179 374.03L676.338 414.312L662.961 405.444L670.175 369.971L647.434 299.627Z" fill="#3F3D56"/>
<path d="M630.466 285.839C642.624 285.839 652.479 275.983 652.479 263.826C652.479 251.668 642.624 241.812 630.466 241.812C618.309 241.812 608.453 251.668 608.453 263.826C608.453 275.983 618.309 285.839 630.466 285.839Z" fill="#FFB7B7"/>
<path d="M651.169 246.226L652.236 244.078L646.866 241.41C646.866 241.41 640.943 231.771 630.223 234.48C619.504 237.189 614.682 238.81 614.682 238.81L609.325 241.505L612.014 244.179L607.191 245.801L610.413 247.401L606.664 249.556L608.682 260.602C608.682 260.602 612.034 252.224 618.478 255.425C624.921 258.627 636.708 253.77 636.708 253.77L646.948 273.588C646.948 273.588 649.06 266.641 652.827 268.493C652.827 268.493 662.449 253.169 651.169 246.226Z" fill="#2F2E41"/>
<path d="M889 641H1C0.734784 641 0.480429 640.895 0.292892 640.707C0.105356 640.52 0 640.265 0 640C0 639.735 0.105356 639.48 0.292892 639.293C0.480429 639.105 0.734784 639 1 639H889C889.265 639 889.52 639.105 889.707 639.293C889.895 639.48 890 639.735 890 640C890 640.265 889.895 640.52 889.707 640.707C889.52 640.895 889.265 641 889 641Z" fill="#CBCBCB"/>
</g>
<defs>
<clipPath id="clip0_985_1195">
<rect width="890" height="641" fill="white"/>
</clipPath>
</defs>
</svg>
