<svg width="658" height="513" viewBox="0 0 658 513" fill="none" xmlns="http://www.w3.org/2000/svg">
<g clip-path="url(#clip0_986_1232)">
<path d="M259.691 136.024C259.388 136.643 259.135 137.286 258.934 137.945L199.772 155.776L188.818 145.512L171.168 160.019L188.794 180.073C190.218 181.694 192.129 182.808 194.24 183.25C196.352 183.691 198.549 183.436 200.503 182.522L264.182 152.744C266.396 154.211 269.005 154.968 271.66 154.917C274.315 154.865 276.892 154.006 279.047 152.454C281.203 150.902 282.834 148.73 283.725 146.228C284.616 143.726 284.725 141.013 284.036 138.448C283.347 135.883 281.893 133.588 279.868 131.869C277.843 130.151 275.343 129.089 272.701 128.826C270.058 128.563 267.397 129.111 265.073 130.396C262.749 131.682 260.872 133.645 259.691 136.024Z" fill="#FFB6B6"/>
<path d="M197.808 156.498L176.042 174.611C175.422 175.127 174.699 175.503 173.922 175.713C173.144 175.924 172.33 175.965 171.535 175.833C170.741 175.7 169.984 175.398 169.316 174.947C168.648 174.496 168.086 173.906 167.667 173.218L152.983 149.106C150.366 145.923 149.119 141.831 149.513 137.729C149.907 133.627 151.912 129.849 155.087 127.222C158.263 124.595 162.35 123.334 166.453 123.715C170.557 124.097 174.341 126.089 176.978 129.256L197.959 148.009C198.559 148.546 199.037 149.207 199.359 149.945C199.682 150.683 199.841 151.483 199.827 152.288C199.812 153.094 199.625 153.887 199.276 154.613C198.928 155.34 198.427 155.982 197.808 156.498Z" fill="#3F3D56"/>
<path d="M256.257 458.086L265.731 452.05C266.166 446.752 266.302 441.433 266.138 436.119L261.224 437.375L266.074 434.284C265.806 427.716 265.213 423.383 265.213 423.383C265.213 423.383 246.058 435.825 233.842 452.689L235.925 466.953L230.957 456.978C229.686 459.012 228.545 461.124 227.539 463.302C217.474 485.291 216.496 506.404 225.355 510.459C234.213 514.514 249.554 499.976 259.62 477.987C262.656 470.915 264.59 463.419 265.355 455.761L256.257 458.086Z" fill="#E6E6E6"/>
<path d="M275.718 479.312L286.948 479.043C290.059 474.732 292.925 470.249 295.531 465.615L290.675 464.15L296.425 464.012C299.591 458.25 301.323 454.234 301.323 454.234C301.323 454.234 278.494 454.984 259.319 463.106L253.73 476.393L254.633 465.286C252.493 466.371 250.424 467.589 248.438 468.933C228.456 482.554 216.705 500.122 222.193 508.172C227.68 516.223 248.328 511.707 268.31 498.087C274.565 493.602 280.095 488.185 284.708 482.025L275.718 479.312Z" fill="#E6E6E6"/>
<path d="M209.35 499.14L221.61 499.139L226.209 451.453L209.348 451.852L209.35 499.14Z" fill="#FFB6B6"/>
<path d="M206.223 495.138L230.367 495.137C234.447 495.137 238.362 496.758 241.247 499.643C244.133 502.529 245.754 506.442 245.754 510.523V511.023L206.223 511.024L206.223 495.138Z" fill="#2F2E41"/>
<path d="M64.7109 463.75L72.7519 473.004L112.274 446.393L100.406 432.734L64.7109 463.75Z" fill="#FFB6B6"/>
<path d="M65.6835 458.766L81.5193 476.991C84.1955 480.071 85.5391 484.09 85.2534 488.16C84.9677 492.231 83.0767 496.021 79.9965 498.698L79.6191 499.026L53.6914 469.186L65.6835 458.766Z" fill="#2F2E41"/>
<path d="M1.19025 512.53H335.484C335.8 512.53 336.103 512.404 336.326 512.181C336.549 511.958 336.675 511.655 336.675 511.339C336.675 511.023 336.549 510.72 336.326 510.497C336.103 510.274 335.8 510.148 335.484 510.148H1.19025C1.03359 510.148 0.87838 510.178 0.733521 510.238C0.588661 510.298 0.457001 510.385 0.346069 510.496C0.235138 510.607 0.14712 510.738 0.0870667 510.883C0.0270129 511.027 -0.00390625 511.183 -0.00390625 511.339C-0.00390625 511.496 0.0270129 511.651 0.0870667 511.796C0.14712 511.94 0.235138 512.072 0.346069 512.182C0.457001 512.293 0.588661 512.381 0.733521 512.44C0.87838 512.5 1.03359 512.53 1.19025 512.53Z" fill="#CACACA"/>
<path d="M182.414 386.891L208.209 482.453H228.209L223.816 377.939L212.221 276.113L170.105 273.875L182.414 386.891Z" fill="#2F2E41"/>
<path d="M137.654 276.113C137.654 276.113 135.416 290.66 144.368 306.325C153.319 321.991 147.725 374.582 147.725 374.582L72.207 450.453C72.207 450.453 83.9434 470.814 89.5382 469.695C95.1331 468.576 183.531 396.962 183.531 396.962L212.219 280.589L137.654 276.113Z" fill="#2F2E41"/>
<path d="M179.295 106.722C193.509 106.722 205.031 95.2 205.031 80.9862C205.031 66.7725 193.509 55.25 179.295 55.25C165.081 55.25 153.559 66.7725 153.559 80.9862C153.559 95.2 165.081 106.722 179.295 106.722Z" fill="#FFB6B6"/>
<path d="M178.209 121.453C178.209 121.453 148.209 110.096 148.209 113.453C148.209 116.809 118.633 145.193 125.347 182.119C132.061 219.045 139.894 236.949 136.537 257.09C133.18 277.232 135.418 281.707 135.418 281.707C135.418 281.707 213.34 288.421 214.459 280.588C215.578 272.756 211.209 260.809 211.209 257.453C211.209 254.096 180.29 130.091 178.209 121.453Z" fill="#3F3D56"/>
<path d="M167.647 96.4495C169.731 95.3479 172.151 95.1208 174.406 94.4361C182.475 91.9863 187.879 82.8656 186.154 74.6121C185.835 73.5535 185.692 72.4497 185.73 71.3448C186.032 68.9004 188.533 67.3231 190.931 66.763C193.33 66.2029 195.882 66.2843 198.174 65.3837C201.714 63.9931 204.065 60.3556 204.575 56.587C204.941 52.7717 204.091 48.9383 202.147 45.635L201.281 48.128C199.96 47.0095 198.979 45.5426 198.45 43.8942C197.466 44.0597 196.54 44.4752 195.762 45.1008C194.984 45.7265 194.38 46.5414 194.007 47.4675C192.616 48.2875 192.416 44.92 190.88 44.4232C190.204 44.3389 189.521 44.5073 188.963 44.8961C185.867 46.3397 182.271 45.1054 178.951 44.3052C173.202 42.9261 167.208 42.919 161.456 44.2846C157.634 45.1962 153.851 46.7836 151.116 49.6046C148.977 52.0331 147.334 54.8565 146.279 57.9159C143.346 65.2979 141.408 73.2854 142.377 81.1695C143.183 87.6211 145.882 93.6895 150.133 98.6089C152.348 101.161 159.574 110.063 163.536 108.545C168.514 106.638 161.782 99.5508 167.647 96.4495Z" fill="#2F2E41"/>
<path d="M274.87 124.457C272.997 124.459 271.201 125.204 269.877 126.529C268.552 127.853 267.807 129.649 267.805 131.522V210.064C267.807 211.937 268.552 213.733 269.877 215.058C271.201 216.382 272.997 217.127 274.87 217.13H650.927C652.8 217.127 654.596 216.382 655.92 215.058C657.245 213.733 657.99 211.937 657.992 210.064V131.522C657.99 129.649 657.245 127.853 655.92 126.529C654.596 125.204 652.8 124.459 650.927 124.457L274.87 124.457Z" fill="#E6E6E6"/>
<path d="M277.41 129.965C276.323 129.966 275.282 130.398 274.514 131.166C273.746 131.934 273.314 132.975 273.312 134.061V207.522C273.314 208.608 273.746 209.65 274.514 210.418C275.282 211.185 276.323 211.617 277.409 211.619H648.385C649.471 211.617 650.512 211.185 651.28 210.417C652.048 209.649 652.48 208.608 652.481 207.522V134.061C652.48 132.975 652.048 131.934 651.28 131.166C650.512 130.398 649.471 129.966 648.385 129.965H277.41Z" fill="white"/>
<path d="M625.092 191.476C626.853 191.472 628.541 190.77 629.785 189.524C631.03 188.278 631.729 186.59 631.732 184.829C631.734 183.068 631.039 181.378 629.798 180.129C628.557 178.88 626.871 178.173 625.11 178.164C625.104 178.164 625.098 178.164 625.092 178.164H311.313C309.552 178.171 307.866 178.876 306.624 180.123C305.381 181.371 304.684 183.059 304.684 184.82C304.684 186.581 305.381 188.269 306.624 189.517C307.866 190.764 309.552 191.469 311.313 191.476H625.092Z" fill="#E6E6E6"/>
<path d="M446.333 162.558C447.208 162.559 448.074 162.388 448.883 162.054C449.691 161.72 450.426 161.23 451.045 160.611C451.664 159.993 452.155 159.259 452.49 158.451C452.825 157.643 452.997 156.777 452.997 155.902C452.997 155.027 452.825 154.161 452.49 153.353C452.155 152.545 451.664 151.811 451.045 151.193C450.426 150.575 449.691 150.084 448.883 149.75C448.074 149.416 447.208 149.245 446.333 149.246H311.313C310.438 149.245 309.571 149.416 308.763 149.75C307.954 150.084 307.22 150.575 306.601 151.193C305.982 151.811 305.491 152.545 305.156 153.353C304.821 154.161 304.648 155.027 304.648 155.902C304.648 156.777 304.821 157.643 305.156 158.451C305.491 159.259 305.982 159.993 306.601 160.611C307.22 161.23 307.954 161.72 308.763 162.054C309.571 162.388 310.438 162.559 311.313 162.558H446.333Z" fill="#FF9900"/>
<path d="M329.832 276C328.506 276.002 327.236 276.529 326.298 277.466C325.361 278.404 324.834 279.674 324.832 281V336.583C324.834 337.909 325.361 339.179 326.298 340.117C327.236 341.054 328.506 341.581 329.832 341.583H595.962C597.288 341.581 598.558 341.054 599.496 340.117C600.433 339.179 600.96 337.909 600.962 336.583V281C600.96 279.674 600.433 278.404 599.496 277.466C598.558 276.529 597.288 276.002 595.962 276H329.832Z" fill="#E6E6E6"/>
<path d="M331.63 279.898C330.861 279.899 330.124 280.205 329.581 280.748C329.037 281.292 328.731 282.029 328.73 282.797V334.785C328.731 335.553 329.037 336.29 329.581 336.834C330.124 337.377 330.861 337.683 331.63 337.684H594.164C594.933 337.683 595.669 337.377 596.213 336.834C596.756 336.29 597.062 335.553 597.062 334.785V282.797C597.062 282.029 596.756 281.292 596.213 280.748C595.669 280.205 594.933 279.899 594.164 279.898H331.63Z" fill="white"/>
<path d="M577.683 323.428C578.932 323.429 580.13 322.935 581.014 322.052C581.898 321.17 582.395 319.973 582.397 318.724C582.399 317.476 581.904 316.277 581.023 315.393C580.141 314.508 578.944 314.01 577.696 314.008C577.691 314.008 577.687 314.008 577.683 314.008H355.625C354.377 314.01 353.181 314.507 352.299 315.39C351.417 316.273 350.922 317.47 350.922 318.718C350.922 319.966 351.417 321.163 352.299 322.046C353.181 322.93 354.377 323.427 355.625 323.428H577.683Z" fill="#E6E6E6"/>
<path d="M451.175 302.964C451.795 302.965 452.408 302.843 452.98 302.607C453.552 302.371 454.072 302.024 454.511 301.586C454.949 301.149 455.296 300.629 455.533 300.057C455.771 299.486 455.893 298.872 455.893 298.253C455.893 297.634 455.771 297.021 455.533 296.449C455.296 295.877 454.949 295.358 454.511 294.92C454.072 294.483 453.552 294.136 452.98 293.9C452.408 293.663 451.795 293.542 451.175 293.543H355.623C355.004 293.542 354.391 293.663 353.819 293.9C353.246 294.136 352.726 294.483 352.288 294.92C351.85 295.358 351.503 295.877 351.265 296.449C351.028 297.021 350.906 297.634 350.906 298.253C350.906 298.872 351.028 299.486 351.265 300.057C351.503 300.629 351.85 301.149 352.288 301.586C352.726 302.024 353.246 302.371 353.819 302.607C354.391 302.843 355.004 302.965 355.623 302.964H451.175Z" fill="#E4E4E4"/>
<path d="M329.832 0C328.506 0.00155617 327.236 0.528842 326.298 1.46619C325.361 2.40353 324.834 3.6744 324.832 5V60.583C324.834 61.9086 325.361 63.1795 326.298 64.1168C327.236 65.0542 328.506 65.5814 329.832 65.583H595.962C597.288 65.5814 598.558 65.0542 599.496 64.1168C600.433 63.1795 600.96 61.9086 600.962 60.583V5C600.96 3.6744 600.433 2.40353 599.496 1.46619C598.558 0.528842 597.288 0.00155617 595.962 0H329.832Z" fill="#E6E6E6"/>
<path d="M331.63 3.89844C330.861 3.89921 330.124 4.20485 329.581 4.74832C329.037 5.29179 328.731 6.02871 328.73 6.79736V58.7847C328.731 59.5533 329.037 60.2902 329.581 60.8337C330.124 61.3771 330.861 61.6828 331.63 61.6836H594.164C594.933 61.6828 595.669 61.377 596.213 60.8336C596.756 60.2901 597.062 59.5532 597.062 58.7847V6.79736C597.062 6.02882 596.756 5.29195 596.213 4.74846C595.669 4.20497 594.933 3.89927 594.164 3.89844H331.63Z" fill="white"/>
<path d="M577.683 47.4285C578.932 47.4295 580.13 46.9345 581.014 46.0524C581.898 45.1703 582.395 43.9733 582.397 42.7245C582.399 41.4757 581.904 40.2773 581.023 39.3928C580.141 38.5084 578.944 38.0102 577.696 38.0078C577.691 38.0078 577.687 38.0078 577.683 38.0078H355.625C354.377 38.0096 353.181 38.5067 352.299 39.3899C351.417 40.273 350.922 41.4701 350.922 42.7181C350.922 43.9662 351.417 45.1632 352.299 46.0464C353.181 46.9296 354.377 47.4266 355.625 47.4285H577.683Z" fill="#E6E6E6"/>
<path d="M451.175 26.9636C451.795 26.9645 452.408 26.8433 452.98 26.607C453.552 26.3707 454.072 26.0239 454.511 25.5864C454.949 25.1489 455.296 24.6294 455.533 24.0574C455.771 23.4855 455.893 22.8724 455.893 22.2533C455.893 21.6341 455.771 21.0211 455.533 20.4491C455.296 19.8772 454.949 19.3576 454.511 18.9202C454.072 18.4827 453.552 18.1359 452.98 17.8995C452.408 17.6632 451.795 17.5421 451.175 17.543H355.623C355.004 17.5421 354.391 17.6632 353.819 17.8995C353.246 18.1359 352.726 18.4827 352.288 18.9202C351.85 19.3576 351.503 19.8772 351.265 20.4491C351.028 21.0211 350.906 21.6341 350.906 22.2533C350.906 22.8724 351.028 23.4855 351.265 24.0574C351.503 24.6294 351.85 25.1489 352.288 25.5864C352.726 26.0239 353.246 26.3707 353.819 26.607C354.391 26.8433 355.004 26.9645 355.623 26.9636H451.175Z" fill="#E4E4E4"/>
<path d="M251.458 181.113C250.96 181.59 250.501 182.106 250.084 182.655L188.404 178.965L181.667 165.551L160.094 173.072L169.713 197.979C170.49 199.991 171.899 201.697 173.728 202.84C175.557 203.983 177.707 204.502 179.856 204.319L249.901 198.356C251.472 200.497 253.659 202.109 256.169 202.977C258.679 203.845 261.393 203.928 263.952 203.216C266.511 202.503 268.792 201.029 270.492 198.988C272.192 196.948 273.23 194.438 273.469 191.793C273.708 189.148 273.136 186.493 271.829 184.181C270.522 181.869 268.542 180.009 266.153 178.85C263.763 177.69 261.077 177.286 258.452 177.69C255.827 178.095 253.388 179.289 251.458 181.113Z" fill="#FFB6B6"/>
<path d="M186.31 178.963L159.629 188.448C158.87 188.718 158.061 188.821 157.259 188.75C156.456 188.68 155.678 188.437 154.978 188.038C154.277 187.64 153.671 187.095 153.201 186.441C152.73 185.788 152.405 185.04 152.25 184.249L146.793 156.55C145.437 152.659 145.679 148.389 147.465 144.676C149.252 140.963 152.437 138.109 156.324 136.74C160.211 135.371 164.481 135.598 168.201 137.372C171.92 139.147 174.784 142.323 176.166 146.205L189.382 171.048C189.76 171.76 189.981 172.544 190.028 173.348C190.076 174.153 189.95 174.958 189.658 175.709C189.367 176.46 188.917 177.139 188.339 177.701C187.761 178.262 187.069 178.693 186.31 178.963Z" fill="#3F3D56"/>
<path d="M277.992 149.617C287.381 149.617 294.992 142.006 294.992 132.617C294.992 123.228 287.381 115.617 277.992 115.617C268.603 115.617 260.992 123.228 260.992 132.617C260.992 142.006 268.603 149.617 277.992 149.617Z" fill="#FF9900"/>
</g>
<defs>
<clipPath id="clip0_986_1232">
<rect width="657.991" height="512.53" fill="white"/>
</clipPath>
</defs>
</svg>
