<svg width="619" height="488" viewBox="0 0 619 488" fill="none" xmlns="http://www.w3.org/2000/svg">
<g clip-path="url(#clip0_986_1264)">
<path d="M148.532 264.221C143.594 237.795 151.368 207.73 172.975 191.734C171.75 220.944 180.897 249.645 198.797 272.76C205.732 281.649 214.372 290.814 214.103 302.086C213.936 309.099 210.143 315.633 205.145 320.555C200.146 325.478 193.988 329.027 187.905 332.52L186.958 333.994C169.123 313.877 153.47 290.647 148.532 264.221Z" fill="#F0F0F0"/>
<path d="M173.37 192.137C164.292 212.453 161.846 235.113 166.38 256.898C167.273 261.605 168.902 266.142 171.208 270.342C173.586 274.361 176.997 277.669 181.086 279.924C184.857 282.103 188.966 283.894 192.142 286.952C193.744 288.541 194.992 290.451 195.804 292.556C196.616 294.662 196.974 296.915 196.855 299.168C196.703 304.791 194.539 310.023 192.246 315.067C189.7 320.667 186.966 326.443 187.132 332.739C187.152 333.502 185.967 333.488 185.947 332.727C185.659 321.773 193.579 312.976 195.343 302.465C196.167 297.561 195.517 292.379 192.069 288.577C189.054 285.253 184.818 283.401 180.981 281.228C176.96 279.087 173.523 275.994 170.973 272.219C168.461 268.15 166.66 263.684 165.646 259.01C163.197 248.526 162.411 237.721 163.318 226.993C164.285 214.742 167.341 202.748 172.353 191.528C172.663 190.834 173.678 191.447 173.37 192.137Z" fill="white"/>
<path d="M164.507 249.969C160.749 250.234 157.019 249.154 153.983 246.922C150.948 244.69 148.804 241.452 147.936 237.786C147.763 237.044 148.908 236.74 149.081 237.483C149.884 240.898 151.881 243.915 154.712 245.987C157.543 248.059 161.021 249.052 164.519 248.784C165.28 248.727 165.263 249.912 164.507 249.969Z" fill="white"/>
<path d="M179.029 279.07C184.131 273.301 186.871 265.82 186.702 258.12C186.685 257.357 187.87 257.371 187.887 258.133C188.047 266.146 185.18 273.925 179.858 279.917C179.35 280.488 178.524 279.638 179.029 279.07Z" fill="white"/>
<path d="M165.673 215.48C167.148 215.681 168.651 215.512 170.045 214.988C171.439 214.465 172.681 213.604 173.66 212.481C174.16 211.905 174.986 212.755 174.489 213.328C173.402 214.563 172.029 215.512 170.49 216.094C168.951 216.676 167.293 216.872 165.66 216.665C165.505 216.658 165.358 216.593 165.249 216.482C165.14 216.37 165.078 216.222 165.074 216.066C165.077 215.909 165.141 215.76 165.253 215.65C165.365 215.54 165.516 215.479 165.673 215.48Z" fill="white"/>
<path d="M261.335 213.591C261.032 213.96 260.73 214.329 260.431 214.708C256.395 219.692 252.771 224.995 249.594 230.566C249.341 230.993 249.092 231.429 248.852 231.862C241.341 245.365 236.403 260.145 234.287 275.451C233.451 281.542 233.08 287.688 233.176 293.836C233.309 302.326 234.13 311.521 231.527 319.33C231.265 320.147 230.952 320.948 230.591 321.727L188.829 335.033C188.719 335.015 188.612 335.007 188.501 334.99L186.858 335.598C186.831 335.281 186.809 334.952 186.782 334.635C186.766 334.452 186.759 334.265 186.742 334.081C186.734 333.958 186.726 333.834 186.712 333.724C186.709 333.682 186.707 333.641 186.707 333.61C186.693 333.499 186.691 333.394 186.68 333.293C186.556 331.454 186.441 329.612 186.346 327.764C186.343 327.754 186.343 327.754 186.349 327.742C185.632 313.665 186.084 299.405 188.686 285.666C188.765 285.253 188.839 284.83 188.937 284.411C190.144 278.225 191.855 272.148 194.053 266.241C195.266 263.01 196.642 259.842 198.176 256.751C202.155 248.77 207.364 241.465 213.613 235.103C226.072 222.423 242.447 213.868 259.994 213.598C260.443 213.592 260.883 213.588 261.335 213.591Z" fill="#F0F0F0"/>
<path d="M261.41 214.153C241.93 224.909 226.335 241.529 216.839 261.653C214.717 265.949 213.287 270.553 212.599 275.294C212.078 279.934 212.81 284.63 214.718 288.892C216.416 292.902 218.619 296.806 219.313 301.159C219.636 303.393 219.482 305.669 218.863 307.839C218.244 310.009 217.173 312.024 215.721 313.751C212.215 318.149 207.337 321.024 202.469 323.671C197.065 326.609 191.404 329.575 187.746 334.701C187.302 335.323 186.365 334.598 186.807 333.978C193.173 325.059 204.792 322.803 212.529 315.473C216.139 312.053 218.741 307.525 218.277 302.413C217.871 297.944 215.603 293.915 213.848 289.87C211.926 285.739 211.045 281.201 211.281 276.651C211.725 271.89 212.976 267.239 214.981 262.898C219.337 253.052 225.215 243.952 232.399 235.932C240.546 226.733 250.208 218.995 260.964 213.055C261.63 212.687 262.071 213.788 261.41 214.153Z" fill="white"/>
<path d="M219.516 254.992C216.356 252.94 214.028 249.832 212.948 246.223C211.868 242.613 212.106 238.737 213.62 235.287C213.929 234.59 215.026 235.037 214.717 235.735C213.301 238.945 213.08 242.556 214.093 245.915C215.105 249.274 217.285 252.161 220.239 254.053C220.881 254.466 220.154 255.402 219.516 254.992Z" fill="white"/>
<path d="M213.587 286.973C221.135 285.438 227.826 281.115 232.328 274.865C232.773 274.246 233.711 274.97 233.266 275.589C228.57 282.083 221.597 286.568 213.74 288.148C212.991 288.298 212.842 287.122 213.587 286.973Z" fill="white"/>
<path d="M241.212 228.157C242.269 229.206 243.571 229.975 244.999 230.397C246.427 230.818 247.938 230.878 249.395 230.572C250.141 230.412 250.289 231.588 249.547 231.747C247.935 232.078 246.267 232.01 244.688 231.547C243.109 231.085 241.667 230.244 240.489 229.096C240.369 228.997 240.291 228.856 240.271 228.702C240.251 228.547 240.29 228.391 240.381 228.265C240.478 228.141 240.619 228.06 240.774 228.04C240.93 228.02 241.087 228.062 241.212 228.157Z" fill="white"/>
<path d="M326.934 69.0843C327.074 69.6993 327.165 70.3244 327.207 70.9537L376.171 99.201L388.072 92.3496L400.76 108.96L380.87 123.136C379.263 124.281 377.328 124.875 375.355 124.827C373.382 124.779 371.479 124.092 369.929 122.87L319.439 83.0373C317.16 83.8808 314.679 84.0106 312.325 83.4093C309.97 82.8081 307.855 81.5044 306.26 79.6717C304.665 77.8389 303.665 75.5639 303.395 73.1493C303.124 70.7347 303.595 68.2949 304.745 66.1545C305.895 64.014 307.669 62.2743 309.831 61.1668C311.994 60.0593 314.443 59.6365 316.852 59.9545C319.26 60.2726 321.515 61.3165 323.316 62.9474C325.117 64.5782 326.379 66.7187 326.934 69.0843Z" fill="#FFB6B6"/>
<path d="M376.85 96.0809C377.006 95.3603 377.315 94.6818 377.756 94.0915C378.198 93.5013 378.761 93.0132 379.409 92.6607L402.014 80.3437C405.025 78.0717 408.813 77.0862 412.549 77.6034C416.285 78.1206 419.664 80.0983 421.944 83.1027C424.223 86.1072 425.219 89.8932 424.711 93.6305C424.204 97.3678 422.235 100.751 419.236 103.039L401.118 121.445C400.601 121.97 399.977 122.378 399.288 122.64C398.599 122.902 397.862 123.013 397.127 122.964C396.391 122.916 395.675 122.71 395.026 122.36C394.378 122.009 393.812 121.523 393.368 120.935L377.769 100.253C377.325 99.6642 377.013 98.9869 376.854 98.267C376.696 97.547 376.694 96.8014 376.85 96.0809Z" fill="#3F3D56"/>
<path d="M417.237 24.4757C420.489 14.11 427.886 4.60293 438.115 1.09876C448.344 -2.4054 463.323 2.93258 471.013 10.5969C485.08 24.6165 488.513 72.779 478.849 87.9989C476.926 87.8972 470.293 87.8219 468.347 87.749L465.595 78.5756V87.6586C450.409 87.1893 434.598 87.4831 418.78 87.787C417.362 77.0112 413.984 34.8414 417.237 24.4757Z" fill="#2F2E41"/>
<path d="M412.881 459.572H399.03L392.441 406.145L412.884 406.146L412.881 459.572Z" fill="#FFB6B6"/>
<path d="M534.139 450.961L520.736 454.454L500.883 404.417L520.665 399.262L534.139 450.961Z" fill="#FFB6B6"/>
<path d="M457.804 131.434L460.943 139.594L460.315 147.754L398.891 169.029L401.939 133.317L408.843 125.156L457.804 131.434Z" fill="#FFB6B6"/>
<path d="M438.384 57.9978C450.5 57.9978 460.322 48.1757 460.322 36.0594C460.322 23.9432 450.5 14.1211 438.384 14.1211C426.267 14.1211 416.445 23.9432 416.445 36.0594C416.445 48.1757 426.267 57.9978 438.384 57.9978Z" fill="#FFB7B7"/>
<path d="M423.308 7.49225C427.524 4.92243 432.352 3.53232 437.288 3.46724C442.225 3.40216 447.088 4.6645 451.37 7.1223C455.651 9.58009 459.194 13.1431 461.627 17.4386C464.061 21.7342 465.295 26.6047 465.202 31.5407C453.243 34.5972 440.5 35.8756 426.995 32.2768L423.908 24.7215L422.088 32.2824C417.956 35.1887 413.969 35.1834 410.125 32.2667C409.962 27.3446 411.094 22.4659 413.407 18.1184C415.721 13.7708 419.135 10.1067 423.308 7.49225Z" fill="#2F2E41"/>
<path d="M419.079 485.874H409.25L407.496 476.594L403.003 485.874H376.934C375.685 485.874 374.468 485.475 373.462 484.734C372.455 483.994 371.712 482.951 371.34 481.758C370.968 480.565 370.987 479.284 371.395 478.103C371.802 476.922 372.576 475.902 373.605 475.192L394.422 460.815V451.434L416.318 452.74L419.079 485.874Z" fill="#2F2E41"/>
<path d="M547.983 474.53L538.472 477.009L534.434 468.472L532.427 478.585L507.202 485.16C505.992 485.475 504.714 485.396 503.553 484.933C502.393 484.471 501.41 483.649 500.75 482.588C500.089 481.528 499.784 480.284 499.881 479.038C499.977 477.792 500.469 476.61 501.285 475.663L517.803 456.5L515.436 447.422L536.954 443.164L547.983 474.53Z" fill="#2F2E41"/>
<path d="M532.438 417.36L491.836 333.913L479.091 232.347C487.879 216.026 471.558 182.818 471.558 182.818V168.875L408.338 180.802C395.407 216.07 389.137 253.432 389.846 290.989L392.393 425.999H391.594C390.268 425.999 388.996 426.526 388.058 427.464C387.121 428.401 386.594 429.673 386.594 430.999C386.594 432.325 387.121 433.597 388.058 434.535C388.996 435.473 390.268 435.999 391.594 435.999H416.594C417.92 435.999 419.192 435.473 420.129 434.535C421.067 433.597 421.594 432.325 421.594 430.999C421.594 429.673 421.067 428.401 420.129 427.464C419.192 426.526 417.92 425.999 416.594 425.999H415.949L433.896 254.243L454.764 339L505.194 417.04C503.907 417.14 502.71 417.735 501.853 418.699C500.996 419.664 500.546 420.923 500.598 422.212C500.65 423.501 501.199 424.72 502.131 425.613C503.062 426.506 504.304 427.003 505.594 426.999H530.594C531.757 427.001 532.883 426.596 533.78 425.856C534.676 425.115 535.286 424.085 535.505 422.943C535.723 421.801 535.536 420.618 534.977 419.599C534.417 418.58 533.519 417.788 532.438 417.36Z" fill="#2F2E41"/>
<path d="M477.274 191.366C477.066 190.55 476.605 189.821 475.958 189.283C475.31 188.745 474.509 188.426 473.669 188.372C472.835 178.844 467.329 117.743 467.12 115.95L467.112 115.874L465.517 81.8167C465.459 80.5798 464.948 79.4076 464.08 78.5239C463.213 77.6403 462.05 77.1071 460.815 77.0264L452.394 76.476C452.279 76.4721 452.169 76.4234 452.089 76.3404C452.008 76.2573 451.963 76.1462 451.963 76.0306C451.963 75.1007 451.78 74.1799 451.424 73.3207C451.069 72.4616 450.547 71.6809 449.889 71.0233C449.232 70.3658 448.451 69.8442 447.592 69.4883C446.733 69.1324 445.812 68.9492 444.882 68.9492H419.951C418.336 68.9499 416.777 69.5399 415.566 70.6085C414.356 71.6771 413.577 73.1508 413.375 74.7531C413.364 74.8634 413.312 74.9654 413.229 75.0389C413.146 75.1123 413.038 75.1517 412.927 75.1492L412.924 75.1491C410.091 75.0907 407.332 76.0499 405.145 77.8524C402.959 79.6549 401.492 82.1814 401.009 84.9734C397.6 104.804 390.77 149.813 394.147 174.836C395.323 183.546 394.788 196.647 394.344 203.935C394.3 204.64 394.395 205.346 394.624 206.013C394.853 206.681 395.212 207.296 395.679 207.825C394.685 208.112 393.841 208.773 393.325 209.67C392.809 210.567 392.661 211.629 392.913 212.633C393.172 213.661 393.83 214.545 394.74 215.089C395.651 215.633 396.741 215.793 397.769 215.534L474.373 196.223C475.402 195.963 476.285 195.306 476.829 194.395C477.373 193.485 477.533 192.395 477.274 191.366Z" fill="#3F3D56"/>
<path d="M350.669 334.551C350.654 332.314 349.849 330.155 348.394 328.456C346.94 326.757 344.931 325.628 342.723 325.269L206.909 302.967C205.606 302.751 204.273 302.811 202.995 303.141L171.166 311.371L152.904 316.098L119.201 324.811C117.167 325.339 115.365 326.528 114.079 328.19C112.792 329.853 112.094 331.895 112.094 333.997V476.312C112.104 478.481 112.854 480.582 114.219 482.268C115.585 483.954 117.484 485.124 119.604 485.585L257.941 484.019C258.59 484.158 259.253 484.227 259.917 484.224C260.885 484.226 261.848 484.079 262.771 483.789L344.961 485.835C346.9 485.229 348.593 484.015 349.788 482.371C350.983 480.728 351.616 478.743 351.594 476.711L350.669 334.551Z" fill="white"/>
<path d="M350.669 334.551C350.654 332.314 349.849 330.155 348.394 328.456C346.94 326.757 344.931 325.628 342.723 325.269L206.909 302.967C205.606 302.751 204.273 302.811 202.995 303.141L171.166 311.371L152.904 316.098L119.201 324.811C117.167 325.339 115.365 326.528 114.079 328.19C112.792 329.853 112.094 331.895 112.094 333.997V476.312C112.104 478.481 112.854 480.582 114.219 482.268C115.585 483.954 117.484 485.124 119.604 485.585L257.941 484.019C258.59 484.158 259.253 484.227 259.917 484.224C260.885 484.226 261.848 484.079 262.771 483.789L344.961 485.835C346.9 485.229 348.593 484.015 349.788 482.371C350.983 480.728 351.616 478.743 351.594 476.711L350.669 334.551ZM344.249 483.573L262.06 485.528C260.887 485.894 259.641 485.953 258.439 485.702L120.095 483.269C118.505 482.922 117.081 482.044 116.058 480.779C115.034 479.515 114.473 477.939 114.466 476.312V333.997C114.467 332.54 114.914 331.119 115.748 329.924C116.582 328.73 117.763 327.82 119.13 327.317C119.347 327.235 119.569 327.167 119.794 327.111L155.449 317.893L176.534 312.438L203.588 305.441C204.168 305.287 204.766 305.209 205.367 305.212C205.754 305.212 206.14 305.244 206.521 305.307L342.336 327.609C343.429 327.789 344.465 328.22 345.362 328.869C346.26 329.518 346.994 330.367 347.506 331.349C348.019 332.344 348.29 333.447 348.297 334.567L349.222 476.727C349.239 478.251 348.764 479.74 347.869 480.973C346.973 482.207 345.704 483.118 344.249 483.573Z" fill="#CCCCCC"/>
<path d="M347.506 331.349C347.414 331.41 347.312 331.455 347.206 331.484L307.257 342.283L294.822 345.643L259.451 355.201C259.35 355.226 259.246 355.239 259.142 355.241C259.071 355.24 259 355.234 258.929 355.225L116.307 329.223L115.833 329.136C115.524 329.078 115.251 328.9 115.073 328.641C114.894 328.382 114.826 328.063 114.883 327.753C114.939 327.444 115.116 327.17 115.374 326.99C115.632 326.811 115.95 326.741 116.26 326.796L119.13 327.317L259.095 352.837L289.58 344.6L306.633 339.99L345.964 329.357L346.589 329.191C346.859 329.12 347.145 329.146 347.398 329.264C347.651 329.383 347.854 329.586 347.973 329.839C348.003 329.9 348.027 329.963 348.044 330.029C348.109 330.278 348.092 330.541 347.995 330.779C347.898 331.017 347.726 331.217 347.506 331.349Z" fill="#CCCCCC"/>
<path d="M260.329 484.5C259.679 484.5 259.149 483.976 259.143 487.324L257.957 358.064C257.951 353.409 258.477 352.873 259.132 352.867H259.143C259.793 352.867 260.323 353.391 260.329 358.042L261.515 487.303C261.521 483.958 260.994 484.493 260.34 484.5H260.329Z" fill="#CCCCCC"/>
<path d="M307.592 486.001L294.82 486.136L289.579 344.599L155.835 317.988C155.704 317.965 155.575 317.933 155.448 317.893C154.421 317.601 153.523 316.968 152.902 316.099L171.165 311.371L176.533 312.438L303.438 337.682C304.105 337.814 304.736 338.088 305.287 338.487C305.838 338.885 306.297 339.398 306.632 339.99C307.027 340.678 307.584 485.179 307.592 486.001Z" fill="#CCCCCC"/>
<path d="M409.896 75.4888C409.886 73.8033 409.278 72.1761 408.182 70.8956C407.086 69.6152 405.572 68.7643 403.908 68.4938L301.551 51.6856C300.57 51.5231 299.565 51.5678 298.602 51.8167L274.614 58.0193L260.85 61.5823L235.45 68.1483C233.917 68.5465 232.559 69.4423 231.59 70.6953C230.62 71.9483 230.094 73.4876 230.094 75.0718V158.964C230.101 160.599 230.666 162.183 231.695 163.454C232.725 164.724 234.156 165.606 235.754 165.953L340.012 188.136C340.501 188.241 341.001 188.293 341.501 188.291C342.231 188.292 342.956 188.182 343.652 187.963L405.595 168.402C407.056 167.946 408.332 167.031 409.233 165.792C410.133 164.553 410.61 163.058 410.594 161.526L409.896 75.4888Z" fill="white"/>
<path d="M300.394 57.8477C300.319 57.8476 300.245 57.8572 300.173 57.8762L237.02 74.2079C236.829 74.2575 236.659 74.3692 236.538 74.5256C236.417 74.682 236.352 74.8742 236.352 75.072V158.963C236.352 159.167 236.423 159.365 236.551 159.524C236.68 159.683 236.859 159.793 237.058 159.836L341.316 182.019C341.467 182.051 341.624 182.043 341.771 181.997L403.714 162.436C403.897 162.379 404.056 162.265 404.168 162.11C404.281 161.955 404.34 161.769 404.337 161.577L403.643 75.5403C403.642 75.3298 403.566 75.1267 403.429 74.9668C403.292 74.807 403.103 74.7008 402.895 74.667L300.538 57.8593C300.49 57.8517 300.442 57.8478 300.394 57.8477Z" fill="#FF9900"/>
<path d="M409.896 75.4888C409.886 73.8033 409.278 72.1761 408.182 70.8956C407.086 69.6152 405.572 68.7643 403.908 68.4938L301.551 51.6856C300.57 51.5231 299.565 51.5678 298.602 51.8167L274.614 58.0193L260.85 61.5823L235.45 68.1483C233.917 68.5465 232.559 69.4423 231.59 70.6953C230.62 71.9483 230.094 73.4876 230.094 75.0718V158.964C230.101 160.599 230.666 162.183 231.695 163.454C232.725 164.724 234.156 165.606 235.754 165.953L340.012 188.136C340.501 188.241 341.001 188.293 341.501 188.291C342.231 188.292 342.956 188.182 343.652 187.963L405.595 168.402C407.056 167.946 408.332 167.031 409.233 165.792C410.133 164.553 410.61 163.058 410.594 161.526L409.896 75.4888ZM405.058 166.698L343.116 186.259C342.233 186.534 341.293 186.579 340.387 186.39L236.123 164.207C234.925 163.946 233.852 163.284 233.081 162.331C232.31 161.378 231.887 160.19 231.881 158.964V75.0718C231.882 73.9739 232.219 72.9025 232.848 72.0022C233.477 71.102 234.366 70.4161 235.397 70.0371C235.56 69.9756 235.727 69.9239 235.897 69.8822L262.769 62.9349L278.66 58.8236L299.049 53.5506C299.486 53.4339 299.937 53.3758 300.389 53.3778C300.681 53.3776 300.972 53.4016 301.259 53.4493L403.616 70.2576C404.44 70.3927 405.221 70.7177 405.897 71.2069C406.574 71.696 407.127 72.3359 407.513 73.0758C407.9 73.826 408.104 74.6569 408.109 75.5008L408.806 161.538C408.819 162.687 408.461 163.809 407.786 164.738C407.111 165.668 406.155 166.355 405.058 166.698Z" fill="#3F3D56"/>
<path d="M407.512 73.0748C407.443 73.1204 407.366 73.1546 407.286 73.176L377.179 81.315L367.807 83.8473L341.149 91.0508C341.073 91.0695 340.995 91.0795 340.917 91.0806C340.863 91.0796 340.809 91.0756 340.756 91.0687L233.269 71.4719L232.911 71.4064C232.678 71.3628 232.472 71.2287 232.338 71.0335C232.203 70.8382 232.152 70.5976 232.194 70.3644C232.237 70.1312 232.37 69.9243 232.565 69.7891C232.759 69.6539 233 69.6012 233.233 69.6428L235.396 70.036L340.881 89.2693L363.856 83.0608L376.708 79.587L406.351 71.5732L406.821 71.4481C407.025 71.3945 407.241 71.414 407.431 71.5033C407.622 71.5926 407.775 71.7459 407.864 71.9367C407.887 71.9822 407.905 72.0302 407.918 72.0797C407.967 72.267 407.954 72.4653 407.881 72.6447C407.808 72.8241 407.678 72.975 407.512 73.0748Z" fill="#3F3D56"/>
<path d="M341.811 188.498C341.575 188.498 341.349 188.405 341.182 188.239C341.014 188.073 340.919 187.848 340.917 187.613L340.023 90.1949C340.021 89.9578 340.113 89.7297 340.28 89.5606C340.446 89.3915 340.672 89.2952 340.909 89.293H340.917C341.153 89.293 341.379 89.386 341.546 89.5518C341.714 89.7177 341.809 89.943 341.811 90.1786L342.705 187.596C342.707 187.833 342.615 188.061 342.449 188.231C342.283 188.4 342.056 188.496 341.819 188.498H341.811Z" fill="#3F3D56"/>
<path d="M377.181 176.649L367.809 179.181L363.858 83.0621L263.062 63.0066C262.963 62.9891 262.866 62.9652 262.77 62.9351C261.996 62.7146 261.319 62.2377 260.852 61.5825L274.615 58.0195L278.661 58.8239L374.303 77.8487C374.806 77.948 375.281 78.1549 375.697 78.4552C376.112 78.7555 376.458 79.1421 376.71 79.5884C377.008 80.1068 377.175 176.029 377.181 176.649Z" fill="#3F3D56"/>
<path d="M372.982 121.848C373.461 122.258 373.907 122.705 374.316 123.185L430.463 116.628L435.923 104.027L456.016 109.783L448.518 133.029C447.912 134.907 446.713 136.537 445.102 137.676C443.49 138.815 441.553 139.4 439.58 139.344L375.295 137.517C373.97 139.553 372.057 141.138 369.809 142.061C367.561 142.984 365.086 143.2 362.712 142.681C360.338 142.163 358.179 140.934 356.52 139.158C354.862 137.382 353.784 135.143 353.429 132.74C353.074 130.336 353.46 127.881 354.534 125.702C355.608 123.523 357.32 121.722 359.443 120.54C361.566 119.357 363.998 118.849 366.416 119.083C368.835 119.316 371.125 120.281 372.982 121.848Z" fill="#FFB6B6"/>
<path d="M429.144 113.72C428.839 113.049 428.682 112.32 428.684 111.583C428.686 110.846 428.847 110.118 429.156 109.449L439.943 86.0742C441.003 82.4548 443.455 79.4034 446.761 77.589C450.067 75.7746 453.958 75.3453 457.58 76.3953C461.202 77.4453 464.26 79.8889 466.084 83.1902C467.907 86.4915 468.347 90.3812 467.307 94.0063L463.754 119.588C463.652 120.318 463.395 121.017 462.998 121.639C462.602 122.261 462.077 122.789 461.458 123.19C460.839 123.59 460.141 123.852 459.411 123.958C458.682 124.064 457.938 124.011 457.231 123.804L432.371 116.519C431.663 116.312 431.009 115.955 430.452 115.471C429.895 114.988 429.449 114.391 429.144 113.72Z" fill="#3F3D56"/>
<path d="M617.485 487.042H1.19113C0.87594 487.041 0.573962 486.915 0.35141 486.692C0.128858 486.468 0.00390625 486.166 0.00390625 485.851C0.00390625 485.536 0.128858 485.233 0.35141 485.01C0.573962 484.787 0.87594 484.661 1.19113 484.66H617.485C617.801 484.66 618.104 484.786 618.327 485.009C618.55 485.232 618.676 485.535 618.676 485.851C618.676 486.167 618.55 486.469 618.327 486.693C618.104 486.916 617.801 487.042 617.485 487.042Z" fill="#CACACA"/>
<path d="M120.112 360.524C139.89 360.524 155.923 344.491 155.923 324.713C155.923 304.935 139.89 288.902 120.112 288.902C100.334 288.902 84.3008 304.935 84.3008 324.713C84.3008 344.491 100.334 360.524 120.112 360.524Z" fill="#FF9900"/>
<path d="M115.226 343.349C114.607 343.349 113.997 343.205 113.444 342.929C112.891 342.652 112.41 342.251 112.039 341.756L102.269 328.729C101.635 327.884 101.363 326.822 101.513 325.776C101.662 324.73 102.221 323.786 103.066 323.152C103.911 322.519 104.974 322.246 106.02 322.396C107.065 322.545 108.009 323.104 108.643 323.949L115.035 332.471L131.451 307.847C131.74 307.41 132.113 307.034 132.548 306.741C132.983 306.449 133.471 306.245 133.985 306.141C134.499 306.037 135.028 306.036 135.542 306.138C136.057 306.239 136.546 306.441 136.982 306.732C137.418 307.022 137.793 307.396 138.084 307.832C138.375 308.268 138.578 308.757 138.68 309.271C138.782 309.785 138.781 310.314 138.678 310.828C138.575 311.342 138.372 311.831 138.08 312.266L118.54 341.575C118.187 342.106 117.712 342.543 117.154 342.852C116.597 343.16 115.973 343.33 115.336 343.348C115.299 343.349 115.262 343.349 115.226 343.349Z" fill="white"/>
<path d="M272.593 134.5C272.482 134.5 272.371 134.488 272.262 134.463L241.262 127.463C240.874 127.375 240.537 127.137 240.325 126.801C240.113 126.464 240.043 126.058 240.131 125.67C240.218 125.282 240.456 124.945 240.792 124.733C241.128 124.52 241.534 124.449 241.922 124.536L272.922 131.536C273.282 131.618 273.599 131.829 273.813 132.129C274.027 132.43 274.123 132.799 274.083 133.165C274.042 133.532 273.867 133.871 273.593 134.117C273.318 134.363 272.962 134.5 272.593 134.5Z" fill="white"/>
<path d="M153.287 416.234C153.178 416.257 153.067 416.267 152.955 416.266L121.179 415.731C120.782 415.723 120.404 415.558 120.128 415.272C119.852 414.987 119.701 414.603 119.707 414.206C119.714 413.808 119.878 413.43 120.163 413.153C120.448 412.877 120.832 412.725 121.229 412.731L153.005 413.266C153.374 413.272 153.728 413.414 153.998 413.665C154.269 413.915 154.438 414.257 154.473 414.624C154.508 414.991 154.406 415.359 154.187 415.656C153.969 415.953 153.648 416.159 153.287 416.234Z" fill="#E6E6E6"/>
<path d="M164.287 433.234C164.178 433.257 164.067 433.267 163.955 433.266L132.179 432.731C131.782 432.723 131.404 432.558 131.128 432.272C130.852 431.987 130.701 431.603 130.707 431.206C130.714 430.808 130.878 430.43 131.163 430.153C131.448 429.877 131.832 429.725 132.229 429.731L164.005 430.266C164.374 430.272 164.728 430.414 164.998 430.665C165.269 430.915 165.438 431.257 165.473 431.624C165.508 431.991 165.406 432.359 165.187 432.656C164.969 432.953 164.648 433.159 164.287 433.234Z" fill="#E6E6E6"/>
</g>
<defs>
<clipPath id="clip0_986_1264">
<rect width="618.675" height="487.325" fill="white"/>
</clipPath>
</defs>
</svg>
