<svg width="620" height="563" viewBox="0 0 620 563" fill="none" xmlns="http://www.w3.org/2000/svg">
<g clip-path="url(#clip0_986_1384)">
<path d="M314.143 139.848H87.1503C72.38 139.848 60.4062 151.821 60.4062 166.592V390.694C60.4062 405.464 72.38 417.438 87.1503 417.438H314.143C328.914 417.438 340.888 405.464 340.888 390.694V166.592C340.888 151.821 328.914 139.848 314.143 139.848Z" fill="#F2F2F2"/>
<path d="M134.818 145.348C116.541 145.348 99.0135 152.608 86.09 165.531C73.1666 178.455 65.9063 195.983 65.9062 214.259V390.694C65.9062 393.484 66.4558 396.247 67.5234 398.824C68.591 401.402 70.1558 403.743 72.1285 405.716C74.1012 407.689 76.4432 409.254 79.0206 410.321C81.5981 411.389 84.3606 411.938 87.1504 411.938H232.023C259.437 411.938 285.728 401.048 305.112 381.664C324.497 362.279 335.387 335.988 335.387 308.574V166.592C335.387 160.958 333.149 155.554 329.165 151.57C325.181 147.586 319.777 145.348 314.143 145.348H134.818Z" fill="white"/>
<path d="M587.691 48.2305H20.9609C20.6957 48.2305 20.4414 48.1251 20.2538 47.9376C20.0663 47.75 19.9609 47.4957 19.9609 47.2305C19.9609 46.9653 20.0663 46.7109 20.2538 46.5234C20.4414 46.3358 20.6957 46.2305 20.9609 46.2305H587.691C587.957 46.2305 588.211 46.3358 588.399 46.5234C588.586 46.7109 588.691 46.9653 588.691 47.2305C588.691 47.4957 588.586 47.75 588.399 47.9376C588.211 48.1251 587.957 48.2305 587.691 48.2305Z" fill="#E6E6E6"/>
<path d="M49.316 18.2081C53.9864 18.2081 57.7726 14.3376 57.7726 9.56304C57.7726 4.7885 53.9864 0.917969 49.316 0.917969C44.6455 0.917969 40.8594 4.7885 40.8594 9.56304C40.8594 14.3376 44.6455 18.2081 49.316 18.2081Z" fill="#E6E6E6"/>
<path d="M78.5308 18.2081C83.2013 18.2081 86.9874 14.3376 86.9874 9.56304C86.9874 4.7885 83.2013 0.917969 78.5308 0.917969C73.8604 0.917969 70.0742 4.7885 70.0742 9.56304C70.0742 14.3376 73.8604 18.2081 78.5308 18.2081Z" fill="#E6E6E6"/>
<path d="M107.742 18.2081C112.412 18.2081 116.198 14.3376 116.198 9.56304C116.198 4.7885 112.412 0.917969 107.742 0.917969C103.071 0.917969 99.2852 4.7885 99.2852 9.56304C99.2852 14.3376 103.071 18.2081 107.742 18.2081Z" fill="#E6E6E6"/>
<path d="M141.054 16.3991C140.921 16.3992 140.789 16.3727 140.666 16.321C140.543 16.2694 140.432 16.1936 140.339 16.0983L134.633 10.2653C134.45 10.0785 134.348 9.82747 134.348 9.56606C134.348 9.30465 134.45 9.05364 134.633 8.86684L140.339 3.03432C140.43 2.93896 140.54 2.86267 140.661 2.80986C140.782 2.75706 140.913 2.72879 141.045 2.72669C141.177 2.72458 141.308 2.74869 141.431 2.79761C141.554 2.84653 141.665 2.91929 141.76 3.01169C141.854 3.10409 141.93 3.2143 141.981 3.33594C142.033 3.45759 142.06 3.58825 142.061 3.72039C142.061 3.85253 142.036 3.98352 141.986 4.10579C141.936 4.22807 141.862 4.33918 141.769 4.43274L136.747 9.56604L141.769 14.6998C141.906 14.8406 141.999 15.0188 142.036 15.2121C142.073 15.4055 142.052 15.6054 141.976 15.7868C141.899 15.9683 141.771 16.1231 141.607 16.232C141.443 16.341 141.251 16.399 141.054 16.3991Z" fill="#E6E6E6"/>
<path d="M150.644 16.3991C150.447 16.399 150.254 16.3409 150.09 16.232C149.926 16.1231 149.798 15.9683 149.722 15.7868C149.645 15.6054 149.624 15.4055 149.661 15.2121C149.698 15.0187 149.791 14.8405 149.929 14.6998L154.95 9.56604L149.929 4.43274C149.835 4.33918 149.762 4.22805 149.711 4.10578C149.661 3.98351 149.636 3.85251 149.637 3.72037C149.638 3.58823 149.665 3.45757 149.716 3.33593C149.768 3.21428 149.843 3.10408 149.937 3.01168C150.032 2.91928 150.144 2.84651 150.267 2.7976C150.389 2.74868 150.521 2.72458 150.653 2.72669C150.785 2.72879 150.915 2.75706 151.036 2.80987C151.157 2.86267 151.267 2.93894 151.358 3.03431L157.064 8.86683C157.247 9.05363 157.349 9.30464 157.349 9.56604C157.349 9.82745 157.247 10.0785 157.064 10.2653L151.358 16.0983C151.265 16.1936 151.154 16.2694 151.031 16.321C150.909 16.3727 150.777 16.3992 150.644 16.3991Z" fill="#E6E6E6"/>
<path d="M537.152 1.92188H526.542C526.254 1.92179 525.969 1.97838 525.703 2.08841C525.438 2.19844 525.196 2.35975 524.993 2.56313C524.789 2.7665 524.628 3.00796 524.518 3.2737C524.408 3.53944 524.351 3.82426 524.352 4.11188V14.7319C524.351 15.0195 524.408 15.3043 524.518 15.5701C524.628 15.8358 524.789 16.0773 524.993 16.2806C525.196 16.484 525.438 16.6453 525.703 16.7554C525.969 16.8654 526.254 16.922 526.542 16.9219H537.152C537.734 16.9224 538.292 16.6922 538.704 16.2817C539.117 15.8711 539.349 15.3138 539.352 14.7319V4.11188C539.349 3.52997 539.117 2.97263 538.704 2.56209C538.292 2.15155 537.734 1.92132 537.152 1.92188Z" fill="#E6E6E6"/>
<path d="M511.152 1.92188H500.542C500.254 1.92179 499.969 1.97838 499.703 2.08841C499.438 2.19844 499.196 2.35975 498.993 2.56313C498.789 2.7665 498.628 3.00796 498.518 3.2737C498.408 3.53944 498.351 3.82426 498.352 4.11188V14.7319C498.351 15.0195 498.408 15.3043 498.518 15.5701C498.628 15.8358 498.789 16.0773 498.993 16.2806C499.196 16.484 499.438 16.6453 499.703 16.7554C499.969 16.8654 500.254 16.922 500.542 16.9219H511.152C511.734 16.9224 512.292 16.6922 512.704 16.2817C513.117 15.8711 513.349 15.3138 513.352 14.7319V4.11188C513.349 3.52997 513.117 2.97263 512.704 2.56209C512.292 2.15155 511.734 1.92132 511.152 1.92188Z" fill="#E6E6E6"/>
<path d="M561.652 2.42188H551.042C550.754 2.42179 550.469 2.47838 550.203 2.58841C549.938 2.69844 549.696 2.85975 549.493 3.06313C549.289 3.2665 549.128 3.50796 549.018 3.7737C548.908 4.03944 548.851 4.32426 548.852 4.61188V15.2319C548.851 15.5195 548.908 15.8043 549.018 16.0701C549.128 16.3358 549.289 16.5773 549.493 16.7806C549.696 16.984 549.938 17.1453 550.203 17.2554C550.469 17.3654 550.754 17.422 551.042 17.4219H561.652C562.234 17.4224 562.792 17.1922 563.204 16.7817C563.617 16.3711 563.849 15.8138 563.852 15.2319V4.61188C563.849 4.02997 563.617 3.47263 563.204 3.06209C562.792 2.65155 562.234 2.42132 561.652 2.42188Z" fill="#E6E6E6"/>
<path d="M348.875 18H279.875C277.488 18 275.199 17.0518 273.511 15.364C271.823 13.6761 270.875 11.3869 270.875 9C270.875 6.61305 271.823 4.32387 273.511 2.63605C275.199 0.94822 277.488 0 279.875 0H348.875C351.262 0 353.551 0.94822 355.239 2.63605C356.927 4.32387 357.875 6.61305 357.875 9C357.875 11.3869 356.927 13.6761 355.239 15.364C353.551 17.0518 351.262 18 348.875 18Z" fill="#E6E6E6"/>
<path d="M235.267 317.4H81.274C80.3932 317.4 79.5486 317.05 78.9258 316.427C78.303 315.804 77.9531 314.959 77.9531 314.079C77.9531 313.198 78.303 312.353 78.9258 311.73C79.5486 311.108 80.3932 310.758 81.274 310.758H235.267C236.147 310.758 236.992 311.108 237.615 311.73C238.238 312.353 238.588 313.198 238.588 314.079C238.588 314.959 238.238 315.804 237.615 316.427C236.992 317.05 236.147 317.4 235.267 317.4Z" fill="#F2F2F2"/>
<path d="M235.269 222.677H3.32272C2.88614 222.678 2.45368 222.592 2.05011 222.426C1.64654 222.259 1.27978 222.015 0.970795 221.706C0.661814 221.398 0.4167 221.031 0.249451 220.628C0.0822013 220.225 -0.00390625 219.793 -0.00390625 219.356C-0.00390625 218.919 0.0822013 218.487 0.249451 218.084C0.4167 217.681 0.661814 217.314 0.970795 217.006C1.27978 216.697 1.64654 216.453 2.05011 216.286C2.45368 216.12 2.88614 216.034 3.32272 216.035H235.269C236.149 216.037 236.992 216.387 237.614 217.01C238.235 217.632 238.584 218.476 238.584 219.356C238.584 220.236 238.235 221.08 237.614 221.702C236.992 222.325 236.149 222.675 235.269 222.677Z" fill="#F2F2F2"/>
<path d="M235.274 246.391H3.31766C2.43723 246.392 1.59339 246.743 0.971375 247.366C0.349355 247.989 0 248.834 0 249.714C0 250.594 0.349355 251.439 0.971375 252.062C1.59339 252.685 2.43723 253.036 3.31766 253.037H235.274C236.154 253.036 236.998 252.685 237.62 252.062C238.242 251.439 238.592 250.594 238.592 249.714C238.592 248.834 238.242 247.989 237.62 247.366C236.998 246.743 236.154 246.392 235.274 246.391Z" fill="#F2F2F2"/>
<path d="M235.267 283.4H3.32086C2.44011 283.4 1.59544 283.05 0.972656 282.427C0.349874 281.804 0 280.959 0 280.079C0 279.198 0.349874 278.353 0.972656 277.73C1.59544 277.108 2.44011 276.758 3.32086 276.758H235.267C236.148 276.758 236.993 277.108 237.616 277.73C238.238 278.353 238.588 279.198 238.588 280.079C238.588 280.959 238.238 281.804 237.616 282.427C236.993 283.05 236.148 283.4 235.267 283.4Z" fill="#F2F2F2"/>
<path d="M430.581 548.715L419.932 548.714L414.867 507.641L430.583 507.642L430.581 548.715Z" fill="#A0616A"/>
<path d="M430.957 559.823L398.211 559.822V559.408C398.211 556.028 399.554 552.786 401.944 550.396C404.334 548.006 407.576 546.663 410.956 546.663L416.939 542.125L428.099 546.664L430.957 546.664L430.957 559.823Z" fill="#2F2E41"/>
<path d="M537.726 548.715L527.078 548.714L522.012 507.641L537.729 507.642L537.726 548.715Z" fill="#A0616A"/>
<path d="M538.101 559.823L505.355 559.822V559.408C505.356 556.028 506.699 552.786 509.089 550.396C511.479 548.006 514.721 546.663 518.101 546.663L524.083 542.125L535.243 546.664L538.102 546.664L538.101 559.823Z" fill="#2F2E41"/>
<path d="M439.271 312.747C439.271 312.747 432.277 320.169 431.982 324.984C431.687 329.799 435.331 321.053 431.687 329.799C428.042 338.546 428.042 332.715 428.042 338.546C428.042 344.377 420.32 350.07 420.32 350.07L407.586 402.463L414.923 525.136H430.958C445.86 479.711 452.793 444.633 444.806 428.925L467.075 379.43C467.075 379.43 509.153 511.1 510.872 512.652C512.591 514.203 512.591 512.016 512.591 514.203C512.591 516.39 510.405 514.203 512.591 516.39L522.795 526.594L538.102 525.136C538.102 525.136 540.15 429.806 523.091 413.331C523.091 413.331 527.03 362.312 523.091 362.455C519.151 362.598 519.151 369.158 519.151 362.598C519.151 356.039 523.82 354.288 523.82 354.288L510.7 308.211L439.271 312.747Z" fill="#2F2E41"/>
<path d="M521.894 211.185L507.074 273.235L510.574 296.315L514.774 323.965L500.254 323.025L477.784 321.565L436.064 318.865L432.414 196.415L451.554 176.415L454.974 166.705L482.644 166.535L489.264 178.195L506.284 183.035C508.472 184.423 510.527 186.01 512.424 187.775C516.624 191.665 520.344 196.605 522.084 201.665C522.609 203.14 522.941 204.676 523.074 206.235L521.894 211.185Z" fill="#E6E6E6"/>
<path d="M393.094 368.623C394.209 368.006 395.177 367.155 395.931 366.128C396.685 365.101 397.206 363.923 397.46 362.674C397.713 361.426 397.692 360.137 397.399 358.897C397.105 357.658 396.546 356.497 395.759 355.494L416.866 317.069L407.673 308.617L382.938 354.44C381.349 355.889 380.348 357.87 380.122 360.009C379.897 362.147 380.465 364.294 381.716 366.042C382.968 367.791 384.818 369.019 386.915 369.494C389.012 369.97 391.211 369.66 393.094 368.623Z" fill="#E6E6E6"/>
<path d="M444.573 188.93L439.654 277.064L415.951 332.451L400.524 352.91L402.277 343.639L391.643 338.319L390.645 337.823L411.06 258.595L412.941 227.808C413.265 222.509 414.685 217.336 417.112 212.615C419.538 207.894 422.918 203.728 427.037 200.38L438.845 190.788L444.573 188.93Z" fill="#E6E6E6"/>
<path d="M393.094 368.623C394.209 368.006 395.177 367.155 395.931 366.128C396.685 365.101 397.206 363.923 397.46 362.674C397.713 361.426 397.692 360.137 397.399 358.897C397.105 357.658 396.546 356.497 395.759 355.494L416.866 317.069L407.673 308.617L382.938 354.44C381.349 355.889 380.348 357.87 380.122 360.009C379.897 362.147 380.465 364.294 381.716 366.042C382.968 367.791 384.818 369.019 386.915 369.494C389.012 369.97 391.211 369.66 393.094 368.623Z" fill="#A0616A"/>
<path d="M444.573 188.93L439.654 277.064L415.951 332.451L400.524 352.91L402.277 343.639L391.643 338.319L390.645 337.823L411.06 258.595L412.941 227.808C413.265 222.509 414.685 217.336 417.112 212.615C419.538 207.894 422.918 203.728 427.037 200.38L438.845 190.788L444.573 188.93Z" fill="#E6E6E6"/>
<path d="M467.421 191.969H240.428C225.657 191.969 213.684 203.942 213.684 218.713V335.815C213.684 350.586 225.657 362.559 240.428 362.559H467.421C482.191 362.559 494.165 350.586 494.165 335.815V218.713C494.165 203.942 482.191 191.969 467.421 191.969Z" fill="white"/>
<path d="M467.421 363.56H240.428C233.072 363.551 226.02 360.625 220.819 355.424C215.618 350.223 212.692 343.171 212.684 335.815V218.713C212.692 211.357 215.618 204.305 220.819 199.104C226.02 193.903 233.072 190.977 240.428 190.969H467.421C474.776 190.977 481.828 193.903 487.029 199.104C492.231 204.305 495.156 211.357 495.164 218.713V335.815C495.156 343.171 492.231 350.223 487.029 355.424C481.828 360.625 474.776 363.551 467.421 363.56ZM240.428 192.969C233.6 192.969 227.052 195.681 222.224 200.509C217.396 205.337 214.684 211.885 214.684 218.713V262.483C214.684 288.759 225.122 313.96 243.703 332.541C262.283 351.121 287.484 361.56 313.761 361.56H467.421C474.249 361.56 480.797 358.847 485.624 354.019C490.452 349.192 493.165 342.644 493.165 335.816V218.713C493.165 215.332 492.499 211.985 491.205 208.861C489.911 205.738 488.015 202.9 485.624 200.509C483.234 198.118 480.396 196.222 477.272 194.928C474.149 193.635 470.801 192.969 467.42 192.969L240.428 192.969Z" fill="#3F3D56"/>
<path d="M300.422 316.262H247.422C245.489 316.262 243.922 317.829 243.922 319.762C243.922 321.695 245.489 323.262 247.422 323.262H300.422C302.355 323.262 303.922 321.695 303.922 319.762C303.922 317.829 302.355 316.262 300.422 316.262Z" fill="#FF9900"/>
<path d="M460.422 306.762H423.422C421.489 306.762 419.922 308.329 419.922 310.262V329.262C419.922 331.195 421.489 332.762 423.422 332.762H460.422C462.355 332.762 463.922 331.195 463.922 329.262V310.262C463.922 308.329 462.355 306.762 460.422 306.762Z" fill="#FF9900"/>
<path d="M261.922 257.762C271.863 257.762 279.922 249.703 279.922 239.762C279.922 229.821 271.863 221.762 261.922 221.762C251.981 221.762 243.922 229.821 243.922 239.762C243.922 249.703 251.981 257.762 261.922 257.762Z" fill="#FF9900"/>
<path d="M467.797 161.383C480.28 161.383 490.399 151.264 490.399 138.781C490.399 126.299 480.28 116.18 467.797 116.18C455.314 116.18 445.195 126.299 445.195 138.781C445.195 151.264 455.314 161.383 467.797 161.383Z" fill="#A0616A"/>
<path d="M486.34 150.462C486.516 151.812 484.073 151.955 483.523 150.71C482.972 149.464 483.686 148.053 484.381 146.882L485.993 144.163C486.297 143.651 486.474 143.074 486.509 142.479C486.544 141.885 486.437 141.291 486.197 140.747C485.956 140.202 485.588 139.723 485.125 139.35C484.662 138.976 484.116 138.719 483.533 138.599C485.008 135.281 483.407 131.139 480.468 129.007C477.528 126.876 473.154 130.864 469.588 131.549C466.022 132.233 463.167 129.503 459.916 131.121L461.869 126.619L451.059 131.277L453.571 126.212C450.842 126.361 449.681 129.684 449.137 132.361C448.558 135.214 447.038 138.781 443.936 138.19C443.201 138.026 442.527 137.657 441.991 137.127C441.456 136.596 441.081 135.926 440.91 135.192C438.514 125.951 445.472 115.848 454.696 114.227C455.682 111.504 457.515 109.168 459.925 107.561C462.336 105.955 465.197 105.163 468.09 105.301C470.984 105.438 473.757 106.499 476.004 108.327C478.251 110.155 479.853 112.655 480.576 115.459L483.6 111.757L484.19 117.003C486.363 116.772 488.417 118.306 489.473 120.22C490.529 122.133 490.03 124.603 491.044 126.539C495.588 135.216 494.085 144.985 487.067 151.64" fill="#2F2E41"/>
<path d="M565.61 544.697C566.075 544.719 566.535 544.597 566.929 544.348C567.322 544.099 567.629 543.735 567.808 543.306C567.988 542.877 568.031 542.403 567.932 541.948C567.833 541.493 567.597 541.08 567.255 540.764L567.1 540.146C567.12 540.096 567.141 540.047 567.161 539.997C567.63 538.891 568.414 537.948 569.417 537.287C570.419 536.625 571.595 536.275 572.796 536.279C573.997 536.284 575.17 536.643 576.168 537.312C577.165 537.981 577.943 538.93 578.403 540.039C580.241 544.467 582.582 548.903 583.159 553.585C583.412 555.655 583.305 557.753 582.842 559.786C587.16 550.366 589.403 540.127 589.417 529.765C589.418 527.165 589.274 524.566 588.985 521.982C588.746 519.863 588.414 517.76 587.99 515.672C585.675 504.34 580.706 493.72 573.49 484.682C569.997 482.776 567.173 479.846 565.397 476.285C564.753 475.006 564.299 473.639 564.047 472.229C564.441 472.281 565.532 466.281 565.235 465.912C565.784 465.079 566.767 464.665 567.367 463.852C570.349 459.809 574.458 460.515 576.603 466.009C581.185 468.322 581.229 472.158 578.418 475.846C576.629 478.193 576.383 481.369 574.814 483.881C574.975 484.088 575.143 484.288 575.305 484.495C578.256 488.29 580.829 492.366 582.986 496.663C582.461 491.849 583.087 486.979 584.812 482.454C586.56 478.236 589.837 474.685 592.723 471.039C593.486 470.059 594.522 469.328 595.701 468.938C596.88 468.547 598.147 468.515 599.344 468.845C600.541 469.175 601.614 469.852 602.426 470.792C603.238 471.731 603.753 472.89 603.907 474.122C603.913 474.176 603.918 474.23 603.924 474.283C603.495 474.525 603.076 474.782 602.665 475.053C602.15 475.398 601.75 475.89 601.519 476.466C601.288 477.041 601.236 477.673 601.37 478.278C601.504 478.884 601.818 479.435 602.271 479.859C602.723 480.283 603.293 480.56 603.906 480.655L603.969 480.665C603.816 482.209 603.547 483.74 603.162 485.244C606.864 499.56 598.872 504.774 587.46 505.008C587.208 505.137 586.963 505.266 586.711 505.389C588.878 511.53 590.237 517.926 590.754 524.417C591.047 528.246 591.03 532.093 590.703 535.92L590.722 535.785C591.549 531.529 593.819 527.69 597.149 524.914C602.094 520.852 609.081 519.356 614.417 516.09C614.984 515.726 615.643 515.532 616.317 515.53C616.991 515.528 617.651 515.719 618.22 516.081C618.789 516.442 619.242 516.958 619.527 517.569C619.812 518.18 619.917 518.859 619.828 519.527L619.806 519.67C619.011 519.994 618.236 520.367 617.488 520.787C617.059 521.029 616.639 521.286 616.229 521.557C615.713 521.902 615.314 522.394 615.082 522.969C614.851 523.545 614.8 524.177 614.934 524.782C615.068 525.388 615.382 525.939 615.834 526.363C616.287 526.787 616.857 527.064 617.47 527.159L617.533 527.168C617.578 527.175 617.617 527.181 617.662 527.188C616.303 530.433 614.396 533.419 612.023 536.017C609.709 548.514 599.767 549.7 589.133 546.061H589.127C587.96 551.131 586.269 556.066 584.082 560.787H566.062C565.997 560.587 565.939 560.38 565.881 560.18C567.549 560.285 569.224 560.185 570.867 559.883C569.53 558.242 568.193 556.589 566.856 554.948C566.827 554.917 566.799 554.885 566.772 554.851C566.094 554.011 565.41 553.178 564.731 552.339L564.731 552.338C564.695 549.764 564.991 547.196 565.61 544.697Z" fill="#F2F2F2"/>
<path d="M287.059 560.842C287.058 560.999 287.089 561.154 287.148 561.298C287.208 561.443 287.296 561.574 287.406 561.685C287.517 561.795 287.648 561.883 287.793 561.943C287.937 562.002 288.092 562.033 288.249 562.032H618.539C618.854 562.032 619.157 561.907 619.38 561.684C619.603 561.461 619.729 561.158 619.729 560.842C619.729 560.527 619.603 560.224 619.38 560.001C619.157 559.778 618.854 559.652 618.539 559.652H288.249C288.092 559.652 287.937 559.682 287.793 559.742C287.648 559.802 287.517 559.889 287.406 560C287.295 560.11 287.208 560.242 287.148 560.386C287.089 560.531 287.058 560.686 287.059 560.842Z" fill="#CCCCCC"/>
<path d="M477.424 363.275C478.516 362.619 479.453 361.734 480.17 360.681C480.887 359.628 481.366 358.431 481.575 357.175C481.784 355.918 481.717 354.631 481.38 353.403C481.042 352.174 480.442 351.034 479.621 350.06L499.349 310.908L489.861 302.789L466.77 349.461C465.234 350.966 464.303 352.982 464.154 355.127C464.005 357.272 464.648 359.397 465.961 361.1C467.275 362.803 469.167 363.965 471.279 364.365C473.392 364.766 475.578 364.378 477.424 363.275Z" fill="#A0616A"/>
<path d="M522.083 201.663L523.073 206.233L520.703 270.113L510.573 296.313L500.253 323.023L498.983 326.313L484.293 347.303L485.713 337.973L474.893 333.033L473.883 332.583L477.783 321.563L486.753 296.243L490.633 285.283L491.473 252.673L492.253 221.843C492.388 216.537 493.624 211.317 495.88 206.513C498.137 201.709 501.366 197.426 505.363 193.933L512.423 187.773C516.623 191.663 520.343 196.603 522.083 201.663Z" fill="#E6E6E6"/>
<path d="M286.073 361.247L239.195 360.247C233.364 360.238 227.774 357.917 223.651 353.793C219.529 349.669 217.21 344.078 217.203 338.247L215.203 289.234C220.959 329.193 243.079 354.539 286.073 361.247Z" fill="#FF9900"/>
</g>
<defs>
<clipPath id="clip0_986_1384">
<rect width="619.868" height="562.031" fill="white"/>
</clipPath>
</defs>
</svg>
