<svg width="894" height="517" viewBox="0 0 894 517" fill="none" xmlns="http://www.w3.org/2000/svg">
<g clip-path="url(#clip0_986_1307)">
<path d="M749.874 54.8132C755.634 95.5565 728.094 87.8817 708.008 84.7315C703.222 83.9794 694.453 90.4147 691.427 92.1334C689.73 86.0991 689.629 87.6125 685.151 82.5687C687.566 89.2063 680.137 92.1635 682.843 96.0441C676.12 95.5658 673.146 81.2522 679.179 50.0402C681.833 36.306 688.756 15.257 717.097 19.9082C747.802 24.9497 748.07 42.0553 749.874 54.8132Z" fill="#2F2E41"/>
<path d="M709.233 84.7743C723.261 84.7743 734.634 73.402 734.634 59.3735C734.634 45.345 723.261 33.9727 709.233 33.9727C695.204 33.9727 683.832 45.345 683.832 59.3735C683.832 73.402 695.204 84.7743 709.233 84.7743Z" fill="#A0616A"/>
<path d="M675.043 50.3106L687.21 52.1701C692.576 48.8091 694.62 43.8223 694.875 37.9601L693.652 53.1544L699.467 54.0432C703.263 51.5107 704.959 48.7683 703.938 45.754L703.225 54.6174C718.726 60.2025 733.751 64.3213 746.437 61.2211C747.09 56.9445 746.895 52.5811 745.862 48.38C744.829 44.1789 742.979 40.2223 740.417 36.7362C737.856 33.25 734.632 30.3027 730.931 28.0623C727.23 25.8219 723.124 24.3324 718.848 23.6789L712.585 22.7218C708.309 22.0683 703.945 22.2635 699.744 23.2962C695.543 24.329 691.586 26.1791 688.1 28.741C684.614 31.3028 681.667 34.5262 679.426 38.2272C677.186 41.9281 675.697 46.0341 675.043 50.3106Z" fill="#2F2E41"/>
<path d="M634.123 217.503H51.1871C47.5791 217.499 44.12 216.064 41.5687 213.513C39.0174 210.962 37.5823 207.502 37.5781 203.894V83.1715C37.5823 79.5635 39.0174 76.1044 41.5687 73.5531C44.12 71.0018 47.5791 69.5667 51.1871 69.5625H634.123C637.731 69.5667 641.19 71.0018 643.741 73.5531C646.292 76.1044 647.727 79.5635 647.732 83.1715V203.894C647.728 207.502 646.292 210.962 643.741 213.513C641.19 216.064 637.731 217.499 634.123 217.503Z" fill="#E6E6E6"/>
<path d="M594.776 208.321H60.3668C56.7588 208.317 53.2997 206.881 50.7484 204.33C48.1971 201.779 46.762 198.32 46.7578 194.712V92.3551C46.762 88.7471 48.1971 85.288 50.7484 82.7367C53.2997 80.1854 56.7588 78.7503 60.3668 78.7461H624.941C628.549 78.7503 632.008 80.1854 634.56 82.7367C637.111 85.288 638.546 88.7471 638.55 92.3551V164.547C638.537 176.152 633.921 187.279 625.715 195.485C617.508 203.692 606.382 208.308 594.776 208.321Z" fill="white"/>
<path d="M524.298 125.152H361.545C360.614 125.152 359.721 124.783 359.063 124.124C358.405 123.466 358.035 122.573 358.035 121.643C358.035 120.712 358.405 119.819 359.063 119.161C359.721 118.503 360.614 118.133 361.545 118.133H524.298C525.229 118.133 526.122 118.503 526.78 119.161C527.438 119.819 527.808 120.712 527.808 121.643C527.808 122.573 527.438 123.466 526.78 124.124C526.122 124.783 525.229 125.152 524.298 125.152Z" fill="#FF9900"/>
<path d="M565.495 145.984H320.354C319.423 145.984 318.53 145.615 317.872 144.956C317.214 144.298 316.844 143.405 316.844 142.475C316.844 141.544 317.214 140.651 317.872 139.993C318.53 139.335 319.423 138.965 320.354 138.965H565.495C566.426 138.965 567.319 139.335 567.977 139.993C568.635 140.651 569.005 141.544 569.005 142.475C569.005 143.405 568.635 144.298 567.977 144.956C567.319 145.615 566.426 145.984 565.495 145.984Z" fill="#E6E6E6"/>
<path d="M565.495 168.938H320.354C319.423 168.938 318.53 168.568 317.872 167.91C317.214 167.251 316.844 166.359 316.844 165.428C316.844 164.497 317.214 163.604 317.872 162.946C318.53 162.288 319.423 161.918 320.354 161.918H565.495C566.426 161.918 567.319 162.288 567.977 162.946C568.635 163.604 569.005 164.497 569.005 165.428C569.005 166.359 568.635 167.251 567.977 167.91C567.319 168.568 566.426 168.938 565.495 168.938Z" fill="#E6E6E6"/>
<path d="M359.383 89.6953H357.383V12.6523H502.04V14.6523H359.383V89.6953Z" fill="#3F3D56"/>
<path d="M563.211 0H510.211C506.763 0 503.457 1.36964 501.019 3.80762C498.581 6.24559 497.211 9.55219 497.211 13C497.211 16.4478 498.581 19.7544 501.019 22.1924C503.457 24.6304 506.763 26 510.211 26H563.211C566.659 26 569.965 24.6304 572.403 22.1924C574.841 19.7544 576.211 16.4478 576.211 13C576.211 9.55219 574.841 6.24559 572.403 3.80762C569.965 1.36964 566.659 0 563.211 0Z" fill="#FF9900"/>
<path d="M357.223 102.779C363.821 102.779 369.169 97.4302 369.169 90.8326C369.169 84.2351 363.821 78.8867 357.223 78.8867C350.626 78.8867 345.277 84.2351 345.277 90.8326C345.277 97.4302 350.626 102.779 357.223 102.779Z" fill="#E6E6E6"/>
<path d="M789.982 495.19H778.944L773.691 452.617H789.982V495.19Z" fill="#A0616A"/>
<path d="M795.805 514.315H787.889L786.477 506.841L782.858 514.315H761.864C760.858 514.315 759.878 513.993 759.067 513.397C758.257 512.8 757.658 511.96 757.358 511C757.059 510.039 757.074 509.008 757.402 508.056C757.731 507.105 758.354 506.284 759.182 505.712L775.947 494.133V486.578L793.582 487.631L795.805 514.315Z" fill="#2F2E41"/>
<path d="M713.982 495.19H702.944L697.691 452.617H713.982V495.19Z" fill="#A0616A"/>
<path d="M719.805 514.315H711.889L710.477 506.841L706.858 514.315H685.864C684.858 514.315 683.878 513.993 683.067 513.397C682.257 512.8 681.658 511.96 681.358 511C681.059 510.039 681.074 509.008 681.402 508.056C681.731 507.105 682.354 506.284 683.182 505.712L699.947 494.133V486.578L717.582 487.631L719.805 514.315Z" fill="#2F2E41"/>
<path d="M818.467 247.8C819.243 246.709 819.771 245.462 820.012 244.145C820.254 242.828 820.204 241.474 819.866 240.179C819.528 238.884 818.91 237.678 818.055 236.648C817.201 235.617 816.131 234.786 814.92 234.214L788.012 155.461L771.98 163.876L802.365 239.135C801.538 241.232 801.51 243.559 802.284 245.676C803.059 247.793 804.583 249.552 806.567 250.62C808.552 251.688 810.86 251.991 813.053 251.471C815.246 250.952 817.173 249.645 818.467 247.8Z" fill="#A0616A"/>
<path d="M650.174 282.956C651.457 282.573 652.64 281.914 653.641 281.024C654.641 280.135 655.435 279.037 655.965 277.807C656.495 276.578 656.749 275.247 656.709 273.909C656.669 272.571 656.337 271.258 655.734 270.062L682.958 191.418L665.142 188.191L642.808 266.22C640.867 267.364 639.412 269.182 638.721 271.327C638.03 273.472 638.149 275.797 639.057 277.86C639.965 279.923 641.599 281.581 643.647 282.52C645.696 283.46 648.019 283.615 650.174 282.956Z" fill="#A0616A"/>
<path d="M693.107 235.998C693.107 235.998 764.1 217.873 761.107 223.998C761.107 223.998 783.027 217.214 786.072 262.442L785.107 352.998L789.069 423.694C789.069 423.694 786.654 429.449 789.363 428.946C792.072 428.442 789.808 436.885 789.808 436.885C789.808 436.885 787.527 445.872 790.299 445.657C793.072 445.443 791.072 459.442 791.072 459.442H773.072L738.583 304.444L723.107 360.998C723.107 360.998 723.959 367.059 722.515 367.251C721.072 367.442 722.085 371.799 722.085 371.799L721.543 377.525L714.072 456.442L697.072 457.442C697.072 457.442 696.938 455.711 697.072 451.442C697.171 448.272 698.147 443.206 695.574 439.03C692.717 434.392 691.059 429.027 694.386 423.117C696.689 419.027 693.697 413.394 693.341 408.07C691.095 374.48 688.679 329.653 688.749 293.017C688.752 291.555 686.468 287.9 688.77 288.671C691.072 289.442 688.801 285.374 688.824 283.756C688.869 280.755 691.965 275.524 689.018 274.983C686.072 274.442 689.111 272.108 689.166 270.704C689.747 255.889 690.975 243.691 693.107 235.998Z" fill="#2F2E41"/>
<path d="M725.108 88L696.108 91L693.298 104.521L665.773 121.333L675.298 147.088C675.298 147.088 667.561 173.167 689.43 183.628L697.108 206L694.403 221.894L693.652 226.306C695.571 229.868 695.908 232.486 692.531 232.89L691.442 239.29C686.601 242.092 686.766 247.072 689.108 253L786.108 263C790.099 249.971 768.565 206.951 757.108 203L758.6 138.728L761.073 96.444L728.073 99.444L725.108 88Z" fill="#3F3D56"/>
<path d="M753.523 98.3413C754.87 97.3676 756.42 96.7108 758.057 96.4201C759.694 96.1294 761.375 96.2121 762.976 96.6622C764.576 97.1123 766.054 97.918 767.3 99.0193C768.545 100.121 769.526 101.489 770.168 103.022L787.425 144.207C790.688 145.387 796.051 155.427 794.108 157.999C794.149 160.719 793.206 158.744 795.841 162.518C798.842 162.73 799.625 163.993 797.555 166.607L797.108 169.999L798.33 170.23C801.601 170.347 801.77 171.565 799.729 173.569C800.406 173.976 800.925 174.6 801.203 175.339C801.481 176.079 801.5 176.89 801.259 177.642L799.073 184.443L782.073 192.443L754.108 139.999L749.594 111.004C748.789 108.753 748.736 106.301 749.445 104.017C750.154 101.734 751.585 99.7417 753.523 98.3413Z" fill="#3F3D56"/>
<path d="M676.019 122.467C674.491 121.144 672.603 120.309 670.596 120.068C668.59 119.828 666.557 120.193 664.76 121.116C662.963 122.04 661.483 123.48 660.511 125.252C659.539 127.023 659.119 129.045 659.305 131.057C660.651 145.607 662.083 161.089 662.083 161.089L659.737 201.411L681.107 206.001L681.932 200.219L684.107 199.001L682.583 195.657C682.968 195.694 683.356 195.636 683.713 195.487C684.07 195.338 684.384 195.102 684.628 194.802C684.872 194.501 685.037 194.145 685.11 193.765C685.182 193.385 685.159 192.993 685.043 192.624L683.648 188.192C683.867 188.37 684.137 188.472 684.419 188.483C684.701 188.494 684.979 188.414 685.212 188.254C685.444 188.093 685.618 187.862 685.708 187.595C685.798 187.327 685.798 187.038 685.71 186.77L684.412 182.837L690.083 143.089L677.844 124.546C677.334 123.773 676.72 123.073 676.019 122.467Z" fill="#3F3D56"/>
<path d="M431.383 198.305H429.383V275.348H574.04V273.348H431.383V198.305Z" fill="#3F3D56"/>
<path d="M648.211 275C648.208 271.553 646.837 268.249 644.4 265.811C641.962 263.374 638.658 262.003 635.211 262H582.211C578.763 262 575.457 263.37 573.019 265.808C570.581 268.246 569.211 271.552 569.211 275C569.211 278.448 570.581 281.754 573.019 284.192C575.457 286.63 578.763 288 582.211 288H635.211C638.658 287.997 641.962 286.626 644.4 284.189C646.837 281.751 648.208 278.447 648.211 275Z" fill="#FF9900"/>
<path d="M431.223 205.779C437.821 205.779 443.169 200.43 443.169 193.833C443.169 187.235 437.821 181.887 431.223 181.887C424.626 181.887 419.277 187.235 419.277 193.833C419.277 200.43 424.626 205.779 431.223 205.779Z" fill="#E6E6E6"/>
<path d="M216.829 199.305H218.829V276.348H74.1719V274.348H216.829V199.305Z" fill="#3F3D56"/>
<path d="M13 289H66C69.4478 289 72.7544 287.63 75.1924 285.192C77.6304 282.754 79 279.448 79 276C79 272.552 77.6304 269.246 75.1924 266.808C72.7544 264.37 69.4478 263 66 263H13C9.55219 263 6.24559 264.37 3.80762 266.808C1.36964 269.246 0 272.552 0 276C0 279.448 1.36964 282.754 3.80762 285.192C6.24559 287.63 9.55219 289 13 289Z" fill="#FF9900"/>
<path d="M219.223 205.111C225.821 205.111 231.169 199.762 231.169 193.165C231.169 186.567 225.821 181.219 219.223 181.219C212.626 181.219 207.277 186.567 207.277 193.165C207.277 199.762 212.626 205.111 219.223 205.111Z" fill="#E6E6E6"/>
<path d="M858.964 515.346H825.777L825.634 515.087C825.21 514.318 824.801 513.502 824.418 512.665C820.999 505.346 819.554 496.976 818.279 489.591L817.32 484.025C817.203 483.351 817.291 482.657 817.571 482.033C817.851 481.409 818.311 480.883 818.892 480.522C819.473 480.161 820.149 479.981 820.832 480.006C821.516 480.031 822.177 480.26 822.73 480.663C827.773 484.333 832.819 487.999 837.866 491.662C839.777 493.052 841.96 494.662 844.05 496.401C844.252 495.421 844.463 494.439 844.674 493.47C844.819 492.801 845.161 492.191 845.655 491.717C846.149 491.244 846.774 490.929 847.448 490.812C848.123 490.695 848.817 490.783 849.441 491.063C850.066 491.343 850.593 491.803 850.954 492.384L854.837 498.622C857.669 503.178 860.169 507.667 859.659 512.509C859.662 512.568 859.657 512.627 859.646 512.685C859.544 513.48 859.355 514.262 859.083 515.016L858.964 515.346Z" fill="#F0F0F0"/>
<path d="M892.273 516.065L576.915 516.372C576.6 516.371 576.299 516.244 576.077 516.021C575.855 515.798 575.73 515.496 575.73 515.182C575.73 514.867 575.855 514.565 576.077 514.342C576.299 514.119 576.6 513.992 576.915 513.991L892.273 513.684C892.587 513.685 892.889 513.811 893.111 514.034C893.333 514.258 893.457 514.56 893.457 514.874C893.457 515.189 893.333 515.491 893.111 515.714C892.889 515.937 892.587 516.063 892.273 516.065Z" fill="#CACACA"/>
<path d="M104.105 179.348C123.988 179.348 140.105 163.23 140.105 143.348C140.105 123.465 123.988 107.348 104.105 107.348C84.2232 107.348 68.1055 123.465 68.1055 143.348C68.1055 163.23 84.2232 179.348 104.105 179.348Z" fill="#F2F2F2"/>
<path d="M240.505 124.961H216.752C215.821 124.961 214.928 124.591 214.27 123.933C213.612 123.275 213.242 122.382 213.242 121.451C213.242 120.52 213.612 119.628 214.27 118.969C214.928 118.311 215.821 117.941 216.752 117.941H240.505C241.436 117.941 242.329 118.311 242.987 118.969C243.645 119.628 244.015 120.52 244.015 121.451C244.015 122.382 243.645 123.275 242.987 123.933C242.329 124.591 241.436 124.961 240.505 124.961Z" fill="#FF9900"/>
<path d="M281.702 145.797H175.561C174.63 145.797 173.737 145.427 173.079 144.769C172.421 144.111 172.051 143.218 172.051 142.287C172.051 141.356 172.421 140.464 173.079 139.805C173.737 139.147 174.63 138.777 175.561 138.777H281.702C282.633 138.777 283.526 139.147 284.184 139.805C284.842 140.464 285.212 141.356 285.212 142.287C285.212 143.218 284.842 144.111 284.184 144.769C283.526 145.427 282.633 145.797 281.702 145.797Z" fill="#E6E6E6"/>
<path d="M281.702 168.75H175.561C174.63 168.75 173.737 168.38 173.079 167.722C172.421 167.064 172.051 166.171 172.051 165.24C172.051 164.309 172.421 163.417 173.079 162.758C173.737 162.1 174.63 161.73 175.561 161.73H281.702C282.633 161.73 283.526 162.1 284.184 162.758C284.842 163.417 285.212 164.309 285.212 165.24C285.212 166.171 284.842 167.064 284.184 167.722C283.526 168.38 282.633 168.75 281.702 168.75Z" fill="#E6E6E6"/>
</g>
<defs>
<clipPath id="clip0_986_1307">
<rect width="893.458" height="516.372" fill="white"/>
</clipPath>
</defs>
</svg>
