<svg width="729" height="524" viewBox="0 0 729 524" fill="none" xmlns="http://www.w3.org/2000/svg">
<g clip-path="url(#clip0_986_1424)">
<path d="M711.348 523H274.348C269.841 522.995 265.519 521.202 262.332 518.015C259.145 514.828 257.353 510.507 257.348 506V17C257.353 12.4929 259.145 8.17181 262.332 4.98479C265.519 1.79777 269.841 0.00507387 274.348 0H711.348C715.855 0.00507387 720.176 1.79777 723.363 4.98479C726.55 8.17181 728.343 12.4929 728.348 17V506C728.343 510.507 726.55 514.828 723.363 518.015C720.176 521.202 715.855 522.995 711.348 523ZM274.348 2C270.371 2.0045 266.558 3.58629 263.746 6.39836C260.934 9.21043 259.352 13.0231 259.348 17V506C259.352 509.977 260.934 513.79 263.746 516.602C266.558 519.414 270.371 520.995 274.348 521H711.348C715.325 520.995 719.137 519.414 721.949 516.602C724.761 513.79 726.343 509.977 726.348 506V17C726.343 13.0231 724.761 9.21043 721.949 6.39836C719.137 3.58629 715.325 2.0045 711.348 2H274.348Z" fill="#3F3D56"/>
<path d="M727.348 41.5898H258.348V43.5898H727.348V41.5898Z" fill="#3F3D56"/>
<path d="M281.348 30C285.766 30 289.348 26.4183 289.348 22C289.348 17.5817 285.766 14 281.348 14C276.929 14 273.348 17.5817 273.348 22C273.348 26.4183 276.929 30 281.348 30Z" fill="#FF9900"/>
<path d="M306.348 30C310.766 30 314.348 26.4183 314.348 22C314.348 17.5817 310.766 14 306.348 14C301.929 14 298.348 17.5817 298.348 22C298.348 26.4183 301.929 30 306.348 30Z" fill="#FF9900"/>
<path d="M331.348 30C335.766 30 339.348 26.4183 339.348 22C339.348 17.5817 335.766 14 331.348 14C326.929 14 323.348 17.5817 323.348 22C323.348 26.4183 326.929 30 331.348 30Z" fill="#FF9900"/>
<path d="M648.848 115H336.848C333.4 115 330.093 113.63 327.655 111.192C325.217 108.754 323.848 105.448 323.848 102C323.848 98.5522 325.217 95.2456 327.655 92.8076C330.093 90.3696 333.4 89 336.848 89H648.848C652.295 89 655.602 90.3696 658.04 92.8076C660.478 95.2456 661.848 98.5522 661.848 102C661.848 105.448 660.478 108.754 658.04 111.192C655.602 113.63 652.295 115 648.848 115ZM336.848 91C333.93 91 331.132 92.1589 329.07 94.2218C327.007 96.2847 325.848 99.0826 325.848 102C325.848 104.917 327.007 107.715 329.07 109.778C331.132 111.841 333.93 113 336.848 113H648.848C651.765 113 654.563 111.841 656.626 109.778C658.689 107.715 659.848 104.917 659.848 102C659.848 99.0826 658.689 96.2847 656.626 94.2218C654.563 92.1589 651.765 91 648.848 91H336.848Z" fill="#3F3D56"/>
<path d="M571.699 217.59H429.699C427.577 217.59 425.543 216.747 424.042 215.247C422.542 213.746 421.699 211.712 421.699 209.59C421.699 207.468 422.542 205.433 424.042 203.933C425.543 202.433 427.577 201.59 429.699 201.59H571.699C573.821 201.59 575.856 202.433 577.356 203.933C578.856 205.433 579.699 207.468 579.699 209.59C579.699 211.712 578.856 213.746 577.356 215.247C575.856 216.747 573.821 217.59 571.699 217.59Z" fill="#CCCCCC"/>
<path d="M653.699 244.59H429.699C427.577 244.59 425.543 243.747 424.042 242.247C422.542 240.746 421.699 238.712 421.699 236.59C421.699 234.468 422.542 232.433 424.042 230.933C425.543 229.433 427.577 228.59 429.699 228.59H653.699C655.821 228.59 657.856 229.433 659.356 230.933C660.856 232.433 661.699 234.468 661.699 236.59C661.699 238.712 660.856 240.746 659.356 242.247C657.856 243.747 655.821 244.59 653.699 244.59Z" fill="#CCCCCC"/>
<path d="M376.492 246.09H333.492C330.974 246.087 328.559 245.085 326.778 243.304C324.997 241.523 323.995 239.109 323.992 236.59V209.59C323.995 207.071 324.997 204.656 326.778 202.875C328.559 201.095 330.974 200.093 333.492 200.09H376.492C379.011 200.093 381.426 201.095 383.207 202.875C384.988 204.656 385.989 207.071 385.992 209.59V236.59C385.989 239.109 384.988 241.523 383.207 243.304C381.426 245.085 379.011 246.087 376.492 246.09ZM333.492 202.09C331.504 202.092 329.597 202.883 328.191 204.289C326.785 205.695 325.994 207.601 325.992 209.59V236.59C325.994 238.578 326.785 240.485 328.191 241.891C329.597 243.297 331.504 244.088 333.492 244.09H376.492C378.481 244.088 380.387 243.297 381.793 241.891C383.199 240.485 383.99 238.578 383.992 236.59V209.59C383.99 207.601 383.199 205.695 381.793 204.289C380.387 202.883 378.481 202.092 376.492 202.09H333.492Z" fill="#CCCCCC"/>
<path d="M571.699 312.59H429.699C427.577 312.59 425.543 311.747 424.042 310.247C422.542 308.746 421.699 306.712 421.699 304.59C421.699 302.468 422.542 300.433 424.042 298.933C425.543 297.433 427.577 296.59 429.699 296.59H571.699C573.821 296.59 575.856 297.433 577.356 298.933C578.856 300.433 579.699 302.468 579.699 304.59C579.699 306.712 578.856 308.746 577.356 310.247C575.856 311.747 573.821 312.59 571.699 312.59Z" fill="#CCCCCC"/>
<path d="M653.699 339.59H429.699C427.577 339.59 425.543 338.747 424.042 337.247C422.542 335.746 421.699 333.712 421.699 331.59C421.699 329.468 422.542 327.433 424.042 325.933C425.543 324.433 427.577 323.59 429.699 323.59H653.699C655.821 323.59 657.856 324.433 659.356 325.933C660.856 327.433 661.699 329.468 661.699 331.59C661.699 333.712 660.856 335.746 659.356 337.247C657.856 338.747 655.821 339.59 653.699 339.59Z" fill="#CCCCCC"/>
<path d="M376.492 341.09H333.492C330.974 341.087 328.559 340.085 326.778 338.304C324.997 336.523 323.995 334.109 323.992 331.59V304.59C323.995 302.071 324.997 299.656 326.778 297.875C328.559 296.095 330.974 295.093 333.492 295.09H376.492C379.011 295.093 381.426 296.095 383.207 297.875C384.988 299.656 385.989 302.071 385.992 304.59V331.59C385.989 334.109 384.988 336.523 383.207 338.304C381.426 340.085 379.011 341.087 376.492 341.09ZM333.492 297.09C331.504 297.092 329.597 297.883 328.191 299.289C326.785 300.695 325.994 302.601 325.992 304.59V331.59C325.994 333.578 326.785 335.485 328.191 336.891C329.597 338.297 331.504 339.088 333.492 339.09H376.492C378.481 339.088 380.387 338.297 381.793 336.891C383.199 335.485 383.99 333.578 383.992 331.59V304.59C383.99 302.601 383.199 300.695 381.793 299.289C380.387 297.883 378.481 297.092 376.492 297.09H333.492Z" fill="#CCCCCC"/>
<path d="M571.699 407.59H429.699C427.577 407.59 425.543 406.747 424.042 405.247C422.542 403.746 421.699 401.712 421.699 399.59C421.699 397.468 422.542 395.433 424.042 393.933C425.543 392.433 427.577 391.59 429.699 391.59H571.699C573.821 391.59 575.856 392.433 577.356 393.933C578.856 395.433 579.699 397.468 579.699 399.59C579.699 401.712 578.856 403.746 577.356 405.247C575.856 406.747 573.821 407.59 571.699 407.59Z" fill="#F2F2F2"/>
<path d="M653.699 434.59H429.699C427.577 434.59 425.543 433.747 424.042 432.247C422.542 430.746 421.699 428.712 421.699 426.59C421.699 424.468 422.542 422.433 424.042 420.933C425.543 419.433 427.577 418.59 429.699 418.59H653.699C655.821 418.59 657.856 419.433 659.356 420.933C660.856 422.433 661.699 424.468 661.699 426.59C661.699 428.712 660.856 430.746 659.356 432.247C657.856 433.747 655.821 434.59 653.699 434.59Z" fill="#F2F2F2"/>
<path d="M376.492 436.09H333.492C330.974 436.087 328.559 435.085 326.778 433.304C324.997 431.523 323.995 429.109 323.992 426.59V399.59C323.995 397.071 324.997 394.656 326.778 392.875C328.559 391.095 330.974 390.093 333.492 390.09H376.492C379.011 390.093 381.426 391.095 383.207 392.875C384.988 394.656 385.989 397.071 385.992 399.59V426.59C385.989 429.109 384.988 431.523 383.207 433.304C381.426 435.085 379.011 436.087 376.492 436.09Z" fill="#F2F2F2"/>
<path d="M354.991 237.829L352.676 235.74C344.453 228.191 339.025 223.291 339.025 217.187C339.004 216.026 339.217 214.872 339.651 213.795C340.084 212.717 340.729 211.737 341.548 210.913C342.367 210.09 343.343 209.439 344.418 208.999C345.493 208.559 346.645 208.339 347.806 208.352C349.177 208.359 350.53 208.665 351.77 209.248C353.011 209.83 354.11 210.676 354.991 211.726C355.872 210.676 356.971 209.83 358.212 209.247C359.453 208.665 360.806 208.359 362.176 208.352C363.338 208.339 364.49 208.559 365.565 208.999C366.64 209.439 367.616 210.09 368.435 210.913C369.253 211.737 369.899 212.717 370.332 213.795C370.765 214.872 370.978 216.026 370.958 217.187C370.958 223.291 365.529 228.191 357.307 235.74L354.991 237.829Z" fill="#FF9900"/>
<path d="M354.991 332.829L352.676 330.74C344.453 323.191 339.025 318.291 339.025 312.187C339.004 311.026 339.217 309.872 339.651 308.795C340.084 307.717 340.729 306.737 341.548 305.913C342.367 305.09 343.343 304.439 344.418 303.999C345.493 303.559 346.645 303.339 347.806 303.352C349.177 303.359 350.53 303.665 351.77 304.248C353.011 304.83 354.11 305.676 354.991 306.726C355.872 305.676 356.971 304.83 358.212 304.247C359.453 303.665 360.806 303.359 362.176 303.352C363.338 303.339 364.49 303.559 365.565 303.999C366.64 304.439 367.616 305.09 368.435 305.913C369.253 306.737 369.899 307.717 370.332 308.795C370.765 309.872 370.978 311.026 370.958 312.187C370.958 318.291 365.529 323.191 357.307 330.74L354.991 332.829Z" fill="#FF9900"/>
<path d="M173.332 316.848H130.332C127.813 316.845 125.399 315.843 123.618 314.062C121.837 312.281 120.835 309.866 120.832 307.348V280.348C120.835 277.829 121.837 275.414 123.618 273.633C125.399 271.852 127.813 270.851 130.332 270.848H173.332C175.851 270.851 178.265 271.852 180.046 273.633C181.827 275.414 182.829 277.829 182.832 280.348V307.348C182.829 309.866 181.827 312.281 180.046 314.062C178.265 315.843 175.851 316.845 173.332 316.848ZM130.332 272.848C128.344 272.85 126.437 273.641 125.031 275.047C123.625 276.453 122.834 278.359 122.832 280.348V307.348C122.834 309.336 123.625 311.242 125.031 312.649C126.437 314.055 128.344 314.845 130.332 314.848H173.332C175.32 314.845 177.227 314.055 178.633 312.649C180.039 311.242 180.83 309.336 180.832 307.348V280.348C180.83 278.359 180.039 276.453 178.633 275.047C177.227 273.641 175.32 272.85 173.332 272.848H130.332Z" fill="#3F3D56"/>
<path d="M151.831 308.587L149.516 306.498C141.293 298.949 135.865 294.049 135.865 287.945C135.844 286.784 136.057 285.63 136.491 284.552C136.924 283.475 137.569 282.495 138.388 281.671C139.207 280.847 140.183 280.196 141.258 279.756C142.332 279.316 143.485 279.097 144.646 279.11C146.017 279.117 147.37 279.423 148.61 280.005C149.851 280.588 150.95 281.433 151.831 282.483C152.712 281.433 153.811 280.588 155.052 280.005C156.293 279.423 157.645 279.117 159.016 279.11C160.178 279.097 161.33 279.316 162.405 279.756C163.48 280.196 164.456 280.847 165.274 281.671C166.093 282.495 166.738 283.475 167.172 284.552C167.605 285.63 167.818 286.784 167.798 287.945C167.798 294.049 162.369 298.949 154.147 306.498L151.831 308.587Z" fill="#FF9900"/>
<path d="M126.967 512.105L138.089 509.459L133.177 465.301L116.762 469.206L126.967 512.105Z" fill="#FFB8B8"/>
<path d="M161.992 514.684L127.038 522.998L123.825 509.493L145.275 504.391C147.048 503.969 148.887 503.901 150.687 504.19C152.487 504.479 154.213 505.119 155.765 506.075C157.317 507.031 158.666 508.283 159.735 509.76C160.803 511.237 161.57 512.91 161.992 514.684Z" fill="#2F2E41"/>
<path d="M116.05 483.672L91.8945 400.886L122.08 393.398L139.788 481.075C139.917 481.717 139.905 482.38 139.752 483.017C139.599 483.654 139.309 484.25 138.902 484.763C138.494 485.277 137.98 485.695 137.394 485.988C136.808 486.282 136.165 486.444 135.51 486.464L120.503 486.91C120.458 486.911 120.413 486.912 120.368 486.912C119.395 486.911 118.448 486.595 117.669 486.011C116.891 485.427 116.322 484.606 116.05 483.672Z" fill="#2F2E41"/>
<path d="M58.0899 512.382L69.5219 512.381L74.9589 468.285L58.0859 468.287L58.0899 512.382Z" fill="#FFB8B8"/>
<path d="M91.5703 522.996L55.6406 522.999L55.6393 509.117L77.6871 509.115C81.3688 509.115 84.8999 510.577 87.5035 513.18C90.1071 515.784 91.57 519.314 91.5703 522.996Z" fill="#2F2E41"/>
<path d="M56.0843 495.249C55.6641 494.842 55.3289 494.356 55.0981 493.819C54.8673 493.282 54.7455 492.704 54.7398 492.12L44.3242 409.535C44.32 408.343 44.7875 407.199 45.6246 406.352C46.4618 405.504 47.6004 405.023 48.7915 405.012L72.0398 404.844H72.073C73.2536 404.847 74.3858 405.313 75.2269 406.141C76.0679 406.97 76.5509 408.095 76.572 409.275L77.8079 490.629C77.8264 491.817 77.3746 492.963 76.5511 493.818C75.7276 494.674 74.5992 495.169 73.4121 495.195L59.2993 496.537C59.2776 496.537 59.2558 496.537 59.2341 496.537C58.0554 496.54 56.9232 496.077 56.0843 495.249Z" fill="#2F2E41"/>
<path d="M61.0649 221.907C74.6296 221.907 85.626 210.911 85.626 197.346C85.626 183.782 74.6296 172.785 61.0649 172.785C47.5003 172.785 36.5039 183.782 36.5039 197.346C36.5039 210.911 47.5003 221.907 61.0649 221.907Z" fill="#FFB8B8"/>
<path d="M28.7066 405.223C12.7261 392.737 12.8953 378.17 18.3481 358.713C19.8843 353.232 21.5422 347.677 23.2973 341.796C31.4523 314.471 40.6953 283.5 37.1863 257.928C36.2251 250.924 38.675 243.557 43.9075 237.716C49.1401 231.874 56.1831 228.637 63.2629 228.82C70.3303 229.008 77.2026 232.621 82.1172 238.732C87.0078 244.814 89.342 266.198 90.0339 269.263C93.2104 283.33 95.1277 291.821 96.5027 305.366C98.1289 321.379 117.605 369.257 123.812 377.286C125.459 379.405 126.638 381.85 127.272 384.458C127.905 387.066 127.979 389.779 127.488 392.418C127.031 394.929 126.039 397.312 124.58 399.406C123.121 401.499 121.23 403.255 119.033 404.554C108.961 410.711 97.8936 415.066 86.3269 417.425C81.3095 418.397 76.2106 418.888 71.0998 418.89C55.243 418.89 40.0916 414.119 28.7066 405.223Z" fill="#FF9900"/>
<path d="M130.845 312.69C130.208 311.476 129.314 310.416 128.224 309.585C127.134 308.753 125.875 308.171 124.535 307.879C123.196 307.587 121.809 307.592 120.472 307.894C119.134 308.197 117.88 308.788 116.796 309.628L98.1848 299.008L88.9727 308.744L115.466 323.372C116.997 325.099 119.108 326.205 121.4 326.479C123.691 326.754 126.004 326.178 127.9 324.862C129.795 323.545 131.142 321.579 131.685 319.336C132.228 317.092 131.929 314.728 130.845 312.69Z" fill="#FFB8B8"/>
<path d="M102.475 319.89L69.118 309.411C64.6394 307.993 60.7033 305.237 57.8405 301.512C54.9778 297.788 53.3263 293.275 53.1087 288.582L51.6734 256.171C51.5928 254.348 51.8807 252.527 52.5199 250.818C53.1592 249.108 54.1366 247.545 55.3938 246.223C56.6511 244.9 58.1622 243.844 59.8368 243.118C61.5115 242.393 63.3153 242.013 65.1403 242C66.9653 241.988 68.774 242.344 70.4583 243.047C72.1426 243.75 73.6678 244.785 74.9427 246.091C76.2176 247.397 77.216 248.946 77.8782 250.647C78.5404 252.348 78.8528 254.165 78.7967 255.989L77.8792 285.809L113.381 300.287C114.008 300.543 114.569 300.937 115.022 301.439C115.476 301.942 115.81 302.54 116 303.19C116.19 303.84 116.231 304.524 116.12 305.192C116.009 305.86 115.749 306.494 115.359 307.047L107.502 318.19C106.953 318.971 106.17 319.557 105.267 319.863C104.363 320.168 103.385 320.178 102.475 319.89Z" fill="#2F2E41"/>
<path d="M21.4832 227.911C22.6055 221.18 22.5642 214.203 22.5242 207.456C22.5134 205.624 22.5024 203.793 22.5137 201.966C22.5659 193.472 23.093 184.47 26.5654 176.182C30.3447 167.163 37.3433 160.649 45.2866 158.76C54.2422 156.627 63.9597 161.342 66.8853 169.105C68.8192 168.013 70.9715 167.363 73.1869 167.204C75.4022 167.044 77.6254 167.378 79.696 168.182C81.7666 168.985 83.6329 170.239 85.1604 171.851C86.6879 173.464 87.8384 175.395 88.5289 177.506C89.2194 179.617 89.4327 181.855 89.1534 184.059C88.8742 186.262 88.1092 188.376 86.9139 190.248C85.7185 192.12 84.1225 193.704 82.2411 194.884C80.3596 196.064 78.2396 196.812 76.0339 197.074L75.6587 197.107L72.7322 189.502C72.7156 189.635 72.6997 189.77 72.6836 189.906C72.4973 191.483 72.3047 193.113 71.0027 194.055C69.3772 195.231 67.3528 199.101 67.9443 203.021C68.3131 205.027 68.8627 206.995 69.5864 208.902C70.3907 210.996 70.9746 213.167 71.3286 215.382C71.7006 218.22 70.9578 221.093 69.2563 223.395C68.752 224.067 68.1161 224.63 67.3874 225.048C66.6587 225.466 65.8524 225.731 65.0178 225.828L32.03 229.239L30.5552 218.22L21.1719 229.777L21.4832 227.911Z" fill="#2F2E41"/>
<path d="M193 523.59H1C0.734784 523.59 0.480429 523.484 0.292892 523.297C0.105356 523.109 0 522.855 0 522.59C0 522.325 0.105356 522.07 0.292892 521.883C0.480429 521.695 0.734784 521.59 1 521.59H193C193.265 521.59 193.52 521.695 193.707 521.883C193.895 522.07 194 522.325 194 522.59C194 522.855 193.895 523.109 193.707 523.297C193.52 523.484 193.265 523.59 193 523.59Z" fill="#CCCCCC"/>
</g>
<defs>
<clipPath id="clip0_986_1424">
<rect width="728.346" height="523.591" fill="white"/>
</clipPath>
</defs>
</svg>
